0
SECTION
2
HEADER
9
$INSUNITS
70
4
9
$ACADVER
1
AC1014
9
$HANDSEED
5
FFFF
0
ENDSEC
0
SECTION
2
TABLES
0
TABLE
2
VPORT
5
8
100
AcDbSymbolTable
0
ENDTAB
0
TABLE
2
LTYPE
5
5
100
AcDbSymbolTable
0
LTYPE
5
14
100
AcDbSymbolTableRecord
100
AcDbLinetypeTableRecord
2
BYBLOCK
70
0
0
LTYPE
5
15
100
AcDbSymbolTableRecord
100
AcDbLinetypeTableRecord
2
BYLAYER
70
0
0
ENDTAB
0
TABLE
2
LAYER
5
2
100
AcDbSymbolTable
70
2
0
LAYER
5
50
100
AcDbSymbolTableRecord
100
AcDbLayerTableRecord
2
0
70
0
6
CONTINUOUS
0
ENDTAB
0
TABLE
2
STYLE
5
3
100
AcDbSymbolTable
70
1
0
STYLE
5
11
100
AcDbSymbolTableRecord
100
AcDbTextStyleTableRecord
2
STANDARD
70
0
0
ENDTAB
0
TABLE
2
VIEW
5
6
100
AcDbSymbolTable
70
0
0
ENDTAB
0
TABLE
2
UCS
5
7
100
AcDbSymbolTable
70
0
0
ENDTAB
0
TABLE
2
APPID
5
9
100
AcDbSymbolTable
70
2
0
APPID
5
12
100
AcDbSymbolTableRecord
100
AcDbRegAppTableRecord
2
ACAD
70
0
0
ENDTAB
0
TABLE
2
DIMSTYLE
5
A
100
AcDbSymbolTable
70
1
0
ENDTAB
0
TABLE
2
BLOCK_RECORD
5
1
100
AcDbSymbolTable
70
1
0
BLOCK_RECORD
5
1F
100
AcDbSymbolTableRecord
100
AcDbBlockTableRecord
2
*MODEL_SPACE
0
BLOCK_RECORD
5
1B
100
AcDbSymbolTableRecord
100
AcDbBlockTableRecord
2
*PAPER_SPACE
0
ENDTAB
0
ENDSEC
0
SECTION
2
BLOCKS
0
BLOCK
5
20
100
AcDbEntity
100
AcDbBlockBegin
2
*MODEL_SPACE
0
ENDBLK
5
21
100
AcDbEntity
100
AcDbBlockEnd
0
BLOCK
5
1C
100
AcDbEntity
100
AcDbBlockBegin
2
*PAPER_SPACE
0
ENDBLK
5
1D
100
AcDbEntity
100
AcDbBlockEnd
0
ENDSEC
0
SECTION
2
ENTITIES
0
LWPOLYLINE
5
100
100
AcDbEntity
8
0
100
AcDbPolyline
90
4
70
1
43
0.0
10
0
20
0
10
13.98
20
0
10
13.98
20
13.98
10
0
20
13.98
0
LWPOLYLINE
5
101
100
AcDbEntity
8
0
100
AcDbPolyline
90
4
70
1
43
0.0
10
32.960000000000001
20
0
10
32.960000000000001
20
13.98
10
18.98
20
13.98
10
18.98
20
0
0
LWPOLYLINE
5
102
100
AcDbEntity
8
0
100
AcDbPolyline
90
4
70
1
43
0.0
10
51.939999999999998
20
0
10
51.939999999999998
20
13.98
10
37.960000000000001
20
13.98
10
37.960000000000001
20
0
0
LWPOLYLINE
5
103
100
AcDbEntity
8
0
100
AcDbPolyline
90
4
70
1
43
0.0
10
70.920000000000002
20
0
10
70.920000000000002
20
13.98
10
56.939999999999998
20
13.98
10
56.939999999999998
20
0
0
LWPOLYLINE
5
104
100
AcDbEntity
8
0
100
AcDbPolyline
90
4
70
1
43
0.0
10
89.900000000000006
20
0
10
89.900000000000006
20
13.98
10
75.920000000000002
20
13.98
10
75.920000000000002
20
0
0
LWPOLYLINE
5
105
100
AcDbEntity
8
0
100
AcDbPolyline
90
4
70
1
43
0.0
10
108.88
20
0
10
108.88
20
13.98
10
94.900000000000006
20
13.98
10
94.900000000000006
20
0
0
LWPOLYLINE
5
106
100
AcDbEntity
8
0
100
AcDbPolyline
90
4
70
1
43
0.0
10
127.86
20
0
10
127.86
20
13.98
10
113.88
20
13.98
10
113.88
20
0
0
LWPOLYLINE
5
107
100
AcDbEntity
8
0
100
AcDbPolyline
90
4
70
1
43
0.0
10
146.84
20
0
10
146.84
20
13.98
10
132.85999999999999
20
13.98
10
132.85999999999999
20
0
0
LWPOLYLINE
5
108
100
AcDbEntity
8
0
100
AcDbPolyline
90
4
70
1
43
0.0
10
165.81999999999999
20
0
10
165.81999999999999
20
13.98
10
151.84
20
13.98
10
151.84
20
0
0
LWPOLYLINE
5
109
100
AcDbEntity
8
0
100
AcDbPolyline
90
4
70
1
43
0.0
10
184.80000000000001
20
0
10
184.80000000000001
20
13.98
10
170.81999999999999
20
13.98
10
170.81999999999999
20
0
0
LWPOLYLINE
5
110
100
AcDbEntity
8
0
100
AcDbPolyline
90
4
70
1
43
0.0
10
203.78
20
0
10
203.78
20
13.98
10
189.80000000000001
20
13.98
10
189.80000000000001
20
0
0
LWPOLYLINE
5
111
100
AcDbEntity
8
0
100
AcDbPolyline
90
4
70
1
43
0.0
10
13.98
20
18.98
10
13.98
20
32.960000000000001
10
0
20
32.960000000000001
10
0
20
18.98
0
LWPOLYLINE
5
112
100
AcDbEntity
8
0
100
AcDbPolyline
90
4
70
1
43
0.0
10
32.960000000000001
20
18.98
10
32.960000000000001
20
32.960000000000001
10
18.98
20
32.960000000000001
10
18.98
20
18.98
0
LWPOLYLINE
5
113
100
AcDbEntity
8
0
100
AcDbPolyline
90
4
70
1
43
0.0
10
51.939999999999998
20
18.98
10
51.939999999999998
20
32.960000000000001
10
37.960000000000001
20
32.960000000000001
10
37.960000000000001
20
18.98
0
LWPOLYLINE
5
114
100
AcDbEntity
8
0
100
AcDbPolyline
90
4
70
1
43
0.0
10
70.920000000000002
20
18.98
10
70.920000000000002
20
32.960000000000001
10
56.939999999999998
20
32.960000000000001
10
56.939999999999998
20
18.98
0
LWPOLYLINE
5
115
100
AcDbEntity
8
0
100
AcDbPolyline
90
4
70
1
43
0.0
10
89.900000000000006
20
18.98
10
89.900000000000006
20
32.960000000000001
10
75.920000000000002
20
32.960000000000001
10
75.920000000000002
20
18.98
0
LWPOLYLINE
5
116
100
AcDbEntity
8
0
100
AcDbPolyline
90
4
70
1
43
0.0
10
108.88
20
18.98
10
108.88
20
32.960000000000001
10
94.900000000000006
20
32.960000000000001
10
94.900000000000006
20
18.98
0
LWPOLYLINE
5
117
100
AcDbEntity
8
0
100
AcDbPolyline
90
4
70
1
43
0.0
10
127.86
20
18.98
10
127.86
20
32.960000000000001
10
113.88
20
32.960000000000001
10
113.88
20
18.98
0
LWPOLYLINE
5
118
100
AcDbEntity
8
0
100
AcDbPolyline
90
4
70
1
43
0.0
10
146.84
20
18.98
10
146.84
20
32.960000000000001
10
132.85999999999999
20
32.960000000000001
10
132.85999999999999
20
18.98
0
LWPOLYLINE
5
119
100
AcDbEntity
8
0
100
AcDbPolyline
90
4
70
1
43
0.0
10
165.81999999999999
20
18.98
10
165.81999999999999
20
32.960000000000001
10
151.84
20
32.960000000000001
10
151.84
20
18.98
0
LWPOLYLINE
5
120
100
AcDbEntity
8
0
100
AcDbPolyline
90
4
70
1
43
0.0
10
184.80000000000001
20
18.98
10
184.80000000000001
20
32.960000000000001
10
170.81999999999999
20
32.960000000000001
10
170.81999999999999
20
18.98
0
LWPOLYLINE
5
121
100
AcDbEntity
8
0
100
AcDbPolyline
90
4
70
1
43
0.0
10
203.78
20
18.98
10
203.78
20
32.960000000000001
10
189.80000000000001
20
32.960000000000001
10
189.80000000000001
20
18.98
0
LWPOLYLINE
5
122
100
AcDbEntity
8
0
100
AcDbPolyline
90
4
70
1
43
0.0
10
222.75999999999999
20
18.98
10
222.75999999999999
20
32.960000000000001
10
208.78
20
32.960000000000001
10
208.78
20
18.98
0
LWPOLYLINE
5
123
100
AcDbEntity
8
0
100
AcDbPolyline
90
4
70
1
43
0.0
10
13.98
20
37.960000000000001
10
13.98
20
51.940000000000012
10
0
20
51.940000000000012
10
0
20
37.960000000000001
0
LWPOLYLINE
5
124
100
AcDbEntity
8
0
100
AcDbPolyline
90
4
70
1
43
0.0
10
32.960000000000001
20
37.960000000000001
10
32.960000000000001
20
51.940000000000012
10
18.98
20
51.940000000000012
10
18.98
20
37.960000000000001
0
LWPOLYLINE
5
125
100
AcDbEntity
8
0
100
AcDbPolyline
90
4
70
1
43
0.0
10
51.939999999999998
20
37.960000000000001
10
51.939999999999998
20
51.940000000000012
10
37.960000000000001
20
51.940000000000012
10
37.960000000000001
20
37.960000000000001
0
LWPOLYLINE
5
126
100
AcDbEntity
8
0
100
AcDbPolyline
90
4
70
1
43
0.0
10
70.920000000000002
20
37.960000000000001
10
70.920000000000002
20
51.940000000000012
10
56.939999999999998
20
51.940000000000012
10
56.939999999999998
20
37.960000000000001
0
LWPOLYLINE
5
127
100
AcDbEntity
8
0
100
AcDbPolyline
90
4
70
1
43
0.0
10
89.900000000000006
20
37.960000000000001
10
89.900000000000006
20
51.940000000000012
10
75.920000000000002
20
51.940000000000012
10
75.920000000000002
20
37.960000000000001
0
LWPOLYLINE
5
128
100
AcDbEntity
8
0
100
AcDbPolyline
90
4
70
1
43
0.0
10
108.88
20
37.960000000000001
10
108.88
20
51.940000000000012
10
94.900000000000006
20
51.940000000000012
10
94.900000000000006
20
37.960000000000001
0
LWPOLYLINE
5
129
100
AcDbEntity
8
0
100
AcDbPolyline
90
4
70
1
43
0.0
10
127.86
20
37.960000000000001
10
127.86
20
51.940000000000012
10
113.88
20
51.940000000000012
10
113.88
20
37.960000000000001
0
LWPOLYLINE
5
130
100
AcDbEntity
8
0
100
AcDbPolyline
90
4
70
1
43
0.0
10
146.84
20
37.960000000000001
10
146.84
20
51.940000000000012
10
132.85999999999999
20
51.940000000000012
10
132.85999999999999
20
37.960000000000001
0
LWPOLYLINE
5
131
100
AcDbEntity
8
0
100
AcDbPolyline
90
4
70
1
43
0.0
10
165.81999999999999
20
37.960000000000001
10
165.81999999999999
20
51.940000000000012
10
151.84
20
51.940000000000012
10
151.84
20
37.960000000000001
0
LWPOLYLINE
5
132
100
AcDbEntity
8
0
100
AcDbPolyline
90
4
70
1
43
0.0
10
184.80000000000001
20
37.960000000000001
10
184.80000000000001
20
51.940000000000012
10
170.81999999999999
20
51.940000000000012
10
170.81999999999999
20
37.960000000000001
0
LWPOLYLINE
5
133
100
AcDbEntity
8
0
100
AcDbPolyline
90
4
70
1
43
0.0
10
203.78
20
37.960000000000001
10
203.78
20
51.940000000000012
10
189.80000000000001
20
51.940000000000012
10
189.80000000000001
20
37.960000000000001
0
LWPOLYLINE
5
134
100
AcDbEntity
8
0
100
AcDbPolyline
90
4
70
1
43
0.0
10
222.75999999999999
20
37.960000000000001
10
222.75999999999999
20
51.940000000000012
10
208.78
20
51.940000000000012
10
208.78
20
37.960000000000001
0
LWPOLYLINE
5
135
100
AcDbEntity
8
0
100
AcDbPolyline
90
4
70
1
43
0.0
10
-7.5099999999999945
20
35.950000000000003
10
-34.509999999999998
20
35.950000000000003
10
-34.510000000000005
20
53.949999999999996
10
-7.5099999999999945
20
53.949999999999996
0
LINE
5
136
100
AcDbEntity
8
0
100
AcDbLine
10
-34.510000000000005
20
53.949999999999996
30
0
11
-7.5099999999999945
21
35.950000000000003
31
0
0
LINE
5
137
100
AcDbEntity
8
0
100
AcDbLine
10
-34.509999999999998
20
35.950000000000003
30
0
11
-7.5099999999999945
21
53.949999999999996
31
0
0
LWPOLYLINE
5
138
100
AcDbEntity
8
0
100
AcDbPolyline
90
4
70
1
43
0.0
10
-14.02000000000001
20
37.960000000000001
10
-27.999999999999989
20
37.960000000000001
10
-27.999999999999989
20
51.940000000000012
10
-14.019999999999989
20
51.940000000000012
0
LINE
5
139
100
AcDbEntity
8
0
100
AcDbLine
10
-14.02000000000001
20
37.960000000000001
30
0
11
-27.999999999999989
21
51.940000000000012
31
0
0
LINE
5
140
100
AcDbEntity
8
0
100
AcDbLine
10
-27.999999999999989
20
37.960000000000001
30
0
11
-14.019999999999989
21
51.940000000000012
31
0
0
LWPOLYLINE
5
141
100
AcDbEntity
8
0
100
AcDbPolyline
90
4
70
1
43
0.0
10
-34.510000000000005
20
34.969999999999999
10
-3.0100000000000011
20
34.970000000000027
10
-3.0100000000000455
20
16.969999999999995
10
-34.510000000000005
20
16.969999999999988
0
LINE
5
142
100
AcDbEntity
8
0
100
AcDbLine
10
-34.510000000000005
20
34.969999999999999
30
0
11
-3.0100000000000455
21
16.969999999999995
31
0
0
LINE
5
143
100
AcDbEntity
8
0
100
AcDbLine
10
-3.0100000000000011
20
34.970000000000027
30
0
11
-34.510000000000005
21
16.969999999999988
31
0
0
LWPOLYLINE
5
144
100
AcDbEntity
8
0
100
AcDbPolyline
90
4
70
1
43
0.0
10
-11.770000000000033
20
18.98
10
-25.750000000000032
20
18.98
10
-25.750000000000032
20
32.960000000000001
10
-11.77000000000003
20
32.960000000000001
0
LINE
5
145
100
AcDbEntity
8
0
100
AcDbLine
10
-11.770000000000033
20
18.98
30
0
11
-25.750000000000032
21
32.960000000000001
31
0
0
LINE
5
146
100
AcDbEntity
8
0
100
AcDbLine
10
-25.750000000000032
20
18.98
30
0
11
-11.77000000000003
21
32.960000000000001
31
0
0
LWPOLYLINE
5
147
100
AcDbEntity
8
0
100
AcDbPolyline
90
4
70
1
43
0.0
10
-34.510000000000005
20
15.990000000000009
10
-3.0100000000000007
20
15.990000000000009
10
-3.0100000000000007
20
-2.0099999999999993
10
-34.510000000000005
20
-2.0099999999999998
0
LINE
5
148
100
AcDbEntity
8
0
100
AcDbLine
10
-34.510000000000005
20
15.990000000000009
30
0
11
-3.0100000000000007
21
-2.0099999999999993
31
0
0
LINE
5
149
100
AcDbEntity
8
0
100
AcDbLine
10
-3.0100000000000007
20
15.990000000000009
30
0
11
-34.510000000000005
21
-2.0099999999999998
31
0
0
LWPOLYLINE
5
150
100
AcDbEntity
8
0
100
AcDbPolyline
90
4
70
1
43
0.0
10
-11.77
20
0
10
-25.749999999999996
20
0
10
-25.749999999999996
20
13.98
10
-11.769999999999996
20
13.98
0
LINE
5
151
100
AcDbEntity
8
0
100
AcDbLine
10
-11.77
20
0
30
0
11
-25.749999999999996
21
13.98
31
0
0
LINE
5
152
100
AcDbEntity
8
0
100
AcDbLine
10
-25.749999999999996
20
0
30
0
11
-11.769999999999996
21
13.98
31
0
0
LINE
5
153
100
AcDbEntity
8
0
100
AcDbLine
10
0
20
13.98
30
0
11
13.98
21
0
31
0
0
LINE
5
154
100
AcDbEntity
8
0
100
AcDbLine
10
0
20
0
30
0
11
13.98
21
13.98
31
0
0
LWPOLYLINE
5
155
100
AcDbEntity
8
0
100
AcDbPolyline
90
4
70
1
43
0.0
10
15.990000000000002
20
-2.0099999999999998
10
-2.0100000000000007
20
-2.0099999999999998
10
-2.0100000000000007
20
15.990000000000002
10
15.990000000000002
20
15.990000000000002
0
LINE
5
156
100
AcDbEntity
8
0
100
AcDbLine
10
15.990000000000002
20
-2.0099999999999998
30
0
11
-2.0100000000000007
21
15.990000000000002
31
0
0
LINE
5
157
100
AcDbEntity
8
0
100
AcDbLine
10
-2.0100000000000007
20
-2.0099999999999998
30
0
11
15.990000000000002
21
15.990000000000002
31
0
0
LWPOLYLINE
5
158
100
AcDbEntity
8
0
100
AcDbPolyline
90
4
70
1
43
0.0
10
15.990000000000002
20
34.990000000000009
10
15.990000000000002
20
16.990000000000002
10
-2.0100000000000007
20
16.990000000000002
10
-2.0100000000000007
20
34.990000000000009
0
LWPOLYLINE
5
159
100
AcDbEntity
8
0
100
AcDbPolyline
90
4
70
1
43
0.0
10
15.990000000000002
20
53.990000000000009
10
15.990000000000002
20
35.990000000000002
10
-2.0100000000000007
20
35.990000000000002
10
-2.0100000000000007
20
53.990000000000009
0
LWPOLYLINE
5
160
100
AcDbEntity
8
0
100
AcDbPolyline
90
4
70
1
43
0.0
10
34.990000000000009
20
15.990000000000002
10
34.990000000000009
20
-2.0099999999999998
10
16.990000000000002
20
-2.0099999999999998
10
16.990000000000002
20
15.990000000000002
0
LWPOLYLINE
5
161
100
AcDbEntity
8
0
100
AcDbPolyline
90
4
70
1
43
0.0
10
53.990000000000009
20
15.990000000000002
10
53.990000000000009
20
-2.0099999999999998
10
35.990000000000002
20
-2.0099999999999998
10
35.990000000000002
20
15.990000000000002
0
LWPOLYLINE
5
162
100
AcDbEntity
8
0
100
AcDbPolyline
90
4
70
1
43
0.0
10
72.990000000000009
20
15.990000000000002
10
72.990000000000009
20
-2.0099999999999998
10
54.990000000000009
20
-2.0099999999999998
10
54.990000000000009
20
15.990000000000002
0
LWPOLYLINE
5
163
100
AcDbEntity
8
0
100
AcDbPolyline
90
4
70
1
43
0.0
10
91.990000000000009
20
15.990000000000002
10
91.990000000000009
20
-2.0099999999999998
10
73.990000000000009
20
-2.0099999999999998
10
73.990000000000009
20
15.990000000000002
0
LWPOLYLINE
5
164
100
AcDbEntity
8
0
100
AcDbPolyline
90
4
70
1
43
0.0
10
110.99000000000001
20
15.990000000000002
10
110.99000000000001
20
-2.0099999999999998
10
92.989999999999995
20
-2.0099999999999998
10
92.989999999999995
20
15.990000000000002
0
LWPOLYLINE
5
165
100
AcDbEntity
8
0
100
AcDbPolyline
90
4
70
1
43
0.0
10
129.99000000000001
20
15.990000000000002
10
129.99000000000001
20
-2.0099999999999998
10
111.98999999999999
20
-2.0099999999999998
10
111.98999999999999
20
15.990000000000002
0
LWPOLYLINE
5
166
100
AcDbEntity
8
0
100
AcDbPolyline
90
4
70
1
43
0.0
10
148.99000000000001
20
15.990000000000002
10
148.99000000000001
20
-2.0099999999999998
10
130.99000000000001
20
-2.0099999999999998
10
130.99000000000001
20
15.990000000000002
0
LWPOLYLINE
5
167
100
AcDbEntity
8
0
100
AcDbPolyline
90
4
70
1
43
0.0
10
167.99000000000001
20
15.990000000000002
10
167.99000000000001
20
-2.0099999999999998
10
149.99000000000001
20
-2.0099999999999998
10
149.99000000000001
20
15.990000000000002
0
LWPOLYLINE
5
168
100
AcDbEntity
8
0
100
AcDbPolyline
90
4
70
1
43
0.0
10
186.99000000000001
20
15.990000000000002
10
186.99000000000001
20
-2.0099999999999998
10
168.99000000000001
20
-2.0099999999999998
10
168.99000000000001
20
15.990000000000002
0
LWPOLYLINE
5
169
100
AcDbEntity
8
0
100
AcDbPolyline
90
4
70
1
43
0.0
10
205.99000000000001
20
15.990000000000002
10
205.99000000000001
20
-2.0099999999999998
10
187.99000000000001
20
-2.0099999999999998
10
187.99000000000001
20
15.990000000000002
0
LWPOLYLINE
5
170
100
AcDbEntity
8
0
100
AcDbPolyline
90
4
70
1
43
0.0
10
34.990000000000009
20
34.990000000000009
10
34.990000000000009
20
16.990000000000002
10
16.990000000000002
20
16.990000000000002
10
16.990000000000002
20
34.990000000000009
0
LWPOLYLINE
5
171
100
AcDbEntity
8
0
100
AcDbPolyline
90
4
70
1
43
0.0
10
53.990000000000009
20
34.990000000000009
10
53.990000000000009
20
16.990000000000002
10
35.990000000000002
20
16.990000000000002
10
35.990000000000002
20
34.990000000000009
0
LWPOLYLINE
5
172
100
AcDbEntity
8
0
100
AcDbPolyline
90
4
70
1
43
0.0
10
72.990000000000009
20
34.990000000000009
10
72.990000000000009
20
16.990000000000002
10
54.990000000000009
20
16.990000000000002
10
54.990000000000009
20
34.990000000000009
0
LWPOLYLINE
5
173
100
AcDbEntity
8
0
100
AcDbPolyline
90
4
70
1
43
0.0
10
91.990000000000009
20
34.990000000000009
10
91.990000000000009
20
16.990000000000002
10
73.990000000000009
20
16.990000000000002
10
73.990000000000009
20
34.990000000000009
0
LWPOLYLINE
5
174
100
AcDbEntity
8
0
100
AcDbPolyline
90
4
70
1
43
0.0
10
110.99000000000001
20
34.990000000000009
10
110.99000000000001
20
16.990000000000002
10
92.989999999999995
20
16.990000000000002
10
92.989999999999995
20
34.990000000000009
0
LWPOLYLINE
5
175
100
AcDbEntity
8
0
100
AcDbPolyline
90
4
70
1
43
0.0
10
129.99000000000001
20
34.990000000000009
10
129.99000000000001
20
16.990000000000002
10
111.98999999999999
20
16.990000000000002
10
111.98999999999999
20
34.990000000000009
0
LWPOLYLINE
5
176
100
AcDbEntity
8
0
100
AcDbPolyline
90
4
70
1
43
0.0
10
148.99000000000001
20
34.990000000000009
10
148.99000000000001
20
16.990000000000002
10
130.99000000000001
20
16.990000000000002
10
130.99000000000001
20
34.990000000000009
0
LWPOLYLINE
5
177
100
AcDbEntity
8
0
100
AcDbPolyline
90
4
70
1
43
0.0
10
167.99000000000001
20
34.990000000000009
10
167.99000000000001
20
16.990000000000002
10
149.99000000000001
20
16.990000000000002
10
149.99000000000001
20
34.990000000000009
0
LWPOLYLINE
5
178
100
AcDbEntity
8
0
100
AcDbPolyline
90
4
70
1
43
0.0
10
186.99000000000001
20
34.990000000000009
10
186.99000000000001
20
16.990000000000002
10
168.99000000000001
20
16.990000000000002
10
168.99000000000001
20
34.990000000000009
0
LWPOLYLINE
5
179
100
AcDbEntity
8
0
100
AcDbPolyline
90
4
70
1
43
0.0
10
205.99000000000001
20
34.990000000000009
10
205.99000000000001
20
16.990000000000002
10
187.99000000000001
20
16.990000000000002
10
187.99000000000001
20
34.990000000000009
0
LWPOLYLINE
5
180
100
AcDbEntity
8
0
100
AcDbPolyline
90
4
70
1
43
0.0
10
34.990000000000009
20
53.990000000000009
10
34.990000000000009
20
35.990000000000002
10
16.990000000000002
20
35.990000000000002
10
16.990000000000002
20
53.990000000000009
0
LWPOLYLINE
5
181
100
AcDbEntity
8
0
100
AcDbPolyline
90
4
70
1
43
0.0
10
53.990000000000009
20
53.990000000000009
10
53.990000000000009
20
35.990000000000002
10
35.990000000000002
20
35.990000000000002
10
35.990000000000002
20
53.990000000000009
0
LWPOLYLINE
5
182
100
AcDbEntity
8
0
100
AcDbPolyline
90
4
70
1
43
0.0
10
72.990000000000009
20
53.990000000000009
10
72.990000000000009
20
35.990000000000002
10
54.990000000000009
20
35.990000000000002
10
54.990000000000009
20
53.990000000000009
0
LWPOLYLINE
5
183
100
AcDbEntity
8
0
100
AcDbPolyline
90
4
70
1
43
0.0
10
91.990000000000009
20
53.990000000000009
10
91.990000000000009
20
35.990000000000002
10
73.990000000000009
20
35.990000000000002
10
73.990000000000009
20
53.990000000000009
0
LWPOLYLINE
5
184
100
AcDbEntity
8
0
100
AcDbPolyline
90
4
70
1
43
0.0
10
110.99000000000001
20
53.990000000000009
10
110.99000000000001
20
35.990000000000002
10
92.989999999999995
20
35.990000000000002
10
92.989999999999995
20
53.990000000000009
0
LWPOLYLINE
5
185
100
AcDbEntity
8
0
100
AcDbPolyline
90
4
70
1
43
0.0
10
129.99000000000001
20
53.990000000000009
10
129.99000000000001
20
35.990000000000002
10
111.98999999999999
20
35.990000000000002
10
111.98999999999999
20
53.990000000000009
0
LWPOLYLINE
5
186
100
AcDbEntity
8
0
100
AcDbPolyline
90
4
70
1
43
0.0
10
148.99000000000001
20
53.990000000000009
10
148.99000000000001
20
35.990000000000002
10
130.99000000000001
20
35.990000000000002
10
130.99000000000001
20
53.990000000000009
0
LWPOLYLINE
5
187
100
AcDbEntity
8
0
100
AcDbPolyline
90
4
70
1
43
0.0
10
167.99000000000001
20
53.990000000000009
10
167.99000000000001
20
35.990000000000002
10
149.99000000000001
20
35.990000000000002
10
149.99000000000001
20
53.990000000000009
0
LWPOLYLINE
5
188
100
AcDbEntity
8
0
100
AcDbPolyline
90
4
70
1
43
0.0
10
186.99000000000001
20
53.990000000000009
10
186.99000000000001
20
35.990000000000002
10
168.99000000000001
20
35.990000000000002
10
168.99000000000001
20
53.990000000000009
0
LWPOLYLINE
5
189
100
AcDbEntity
8
0
100
AcDbPolyline
90
4
70
1
43
0.0
10
205.99000000000001
20
53.990000000000009
10
205.99000000000001
20
35.990000000000002
10
187.99000000000001
20
35.990000000000002
10
187.99000000000001
20
53.990000000000009
0
LWPOLYLINE
5
190
100
AcDbEntity
8
0
100
AcDbPolyline
90
4
70
1
43
0.0
10
224.99000000000001
20
34.990000000000009
10
224.99000000000001
20
16.990000000000002
10
206.99000000000001
20
16.990000000000002
10
206.99000000000001
20
34.990000000000009
0
LWPOLYLINE
5
191
100
AcDbEntity
8
0
100
AcDbPolyline
90
4
70
1
43
0.0
10
224.99000000000001
20
53.990000000000009
10
224.99000000000001
20
35.990000000000002
10
206.99000000000001
20
35.990000000000002
10
206.99000000000001
20
53.990000000000009
0
LWPOLYLINE
5
192
100
AcDbEntity
8
0
100
AcDbPolyline
90
4
70
1
43
0.0
10
-34.510000000000005
20
-3.0099999999999989
10
-12.010000000000007
20
-3.0099999999999989
10
-12.010000000000007
20
-21.009999999999991
10
-34.510000000000005
20
-21.009999999999991
0
LINE
5
193
100
AcDbEntity
8
0
100
AcDbLine
10
-34.510000000000005
20
-3.0099999999999989
30
0
11
-12.010000000000007
21
-21.009999999999991
31
0
0
LINE
5
194
100
AcDbEntity
8
0
100
AcDbLine
10
-34.510000000000005
20
-21.009999999999991
30
0
11
-12.010000000000007
21
-3.0099999999999989
31
0
0
LWPOLYLINE
5
195
100
AcDbEntity
8
0
100
AcDbPolyline
90
4
70
1
43
0.0
10
-16.270000000000003
20
-18.999999999999993
10
-30.250000000000007
20
-18.999999999999993
10
-30.250000000000007
20
-5.0199999999999925
10
-16.27000000000001
20
-5.0199999999999925
0
LINE
5
196
100
AcDbEntity
8
0
100
AcDbLine
10
-16.270000000000003
20
-18.999999999999993
30
0
11
-30.250000000000007
21
-5.0199999999999925
31
0
0
LINE
5
197
100
AcDbEntity
8
0
100
AcDbLine
10
-30.250000000000007
20
-18.999999999999993
30
0
11
-16.27000000000001
21
-5.0199999999999925
31
0
0
LWPOLYLINE
5
198
100
AcDbEntity
8
0
100
AcDbPolyline
90
4
70
1
43
0.0
10
62.185000000000016
20
-21.010000000000023
10
179.88500000000002
20
-21.009999999999994
10
179.88500000000002
20
-3.0100000000000247
10
62.184999999999995
20
-3.0100000000000304
0
LINE
5
199
100
AcDbEntity
8
0
100
AcDbLine
10
62.184999999999995
20
-3.0100000000000304
30
0
11
179.88500000000002
21
-21.009999999999994
31
0
0
LINE
5
200
100
AcDbEntity
8
0
100
AcDbLine
10
62.185000000000016
20
-21.010000000000023
30
0
11
179.88500000000002
21
-3.0100000000000247
31
0
0
LINE
5
201
100
AcDbEntity
8
0
100
AcDbLine
10
62.184999999999995
20
-12.010000000000026
30
0
11
179.88500000000002
21
-12.010000000000005
31
0
0
LWPOLYLINE
5
202
100
AcDbEntity
8
0
100
AcDbPolyline
90
4
70
1
43
0.0
10
128.02499999999998
20
-5.02000000000002
10
114.045
20
-5.02000000000002
10
114.04499999999999
20
-19.000000000000021
10
128.02499999999998
20
-19.000000000000025
0
LINE
5
203
100
AcDbEntity
8
0
100
AcDbLine
10
128.02499999999998
20
-5.02000000000002
30
0
11
114.04499999999999
21
-19.000000000000021
31
0
0
LINE
5
204
100
AcDbEntity
8
0
100
AcDbLine
10
114.045
20
-5.02000000000002
30
0
11
128.02499999999998
21
-19.000000000000025
31
0
0
LWPOLYLINE
5
205
100
AcDbEntity
8
0
100
AcDbPolyline
90
4
70
1
43
0.0
10
183.58000000000001
20
-3.0099999999999931
10
206.08000000000001
20
-3.0099999999999727
10
206.08000000000004
20
-21.009999999999994
10
183.58000000000001
20
-21.009999999999994
0
LINE
5
206
100
AcDbEntity
8
0
100
AcDbLine
10
183.58000000000001
20
-3.0099999999999931
30
0
11
206.08000000000004
21
-21.009999999999994
31
0
0
LINE
5
207
100
AcDbEntity
8
0
100
AcDbLine
10
183.58000000000001
20
-21.009999999999994
30
0
11
206.08000000000001
21
-3.0099999999999727
31
0
0
LWPOLYLINE
5
208
100
AcDbEntity
8
0
100
AcDbPolyline
90
4
70
1
43
0.0
10
201.82000000000014
20
-19
10
187.84000000000003
20
-19
10
187.84000000000003
20
-5.0199999999999978
10
201.82000000000002
20
-5.0200000000000333
0
LINE
5
209
100
AcDbEntity
8
0
100
AcDbLine
10
201.82000000000014
20
-19
30
0
11
187.84000000000003
21
-5.0199999999999978
31
0
0
LINE
5
210
100
AcDbEntity
8
0
100
AcDbLine
10
187.84000000000003
20
-19
30
0
11
201.82000000000002
21
-5.0200000000000333
31
0
0
LWPOLYLINE
5
211
100
AcDbEntity
8
0
100
AcDbPolyline
90
4
70
1
43
0.0
10
229.58000000000001
20
-3.0099999999999727
10
229.58000000000004
20
-21.009999999999994
10
207.08000000000001
20
-21.009999999999994
10
207.08000000000001
20
-3.0099999999999931
0
LWPOLYLINE
5
212
100
AcDbEntity
8
0
100
AcDbPolyline
90
4
70
1
43
0.0
10
211.34000000000003
20
-19
10
211.34000000000003
20
-5.0199999999999978
10
225.32000000000005
20
-5.0200000000000333
10
225.32000000000014
20
-19
0
LWPOLYLINE
5
213
100
AcDbEntity
8
0
100
AcDbPolyline
90
4
70
1
43
0.0
10
253.07999999999998
20
-3.0099999999999727
10
253.08000000000004
20
-21.009999999999994
10
230.57999999999998
20
-21.009999999999994
10
230.57999999999998
20
-3.0099999999999931
0
LWPOLYLINE
5
214
100
AcDbEntity
8
0
100
AcDbPolyline
90
4
70
1
43
0.0
10
234.84000000000003
20
-19
10
234.84000000000003
20
-5.0199999999999978
10
248.82000000000002
20
-5.0200000000000333
10
248.82000000000011
20
-19
0
LWPOLYLINE
5
215
100
AcDbEntity
8
0
100
AcDbPolyline
90
4
70
1
43
0.0
10
252.98999999999995
20
15.990000000000004
10
211.38999999999996
20
15.990000000000066
10
211.39000000000004
20
-2.0099999999999518
10
252.98999999999992
20
-2.0099999999999962
0
LINE
5
216
100
AcDbEntity
8
0
100
AcDbLine
10
211.38999999999996
20
15.990000000000066
30
0
11
252.98999999999992
21
-2.0099999999999962
31
0
0
LINE
5
217
100
AcDbEntity
8
0
100
AcDbLine
10
211.39000000000004
20
-2.0099999999999518
30
0
11
252.98999999999995
21
15.990000000000004
31
0
0
LWPOLYLINE
5
218
100
AcDbEntity
8
0
100
AcDbPolyline
90
4
70
1
43
0.0
10
239.17999999999989
20
-2.8125197522449185e-14
10
225.20000000000005
20
4.5032328315781685e-14
10
225.19999999999999
20
13.980000000000047
10
239.18000000000001
20
13.980000000000008
0
LINE
5
219
100
AcDbEntity
8
0
100
AcDbLine
10
239.17999999999989
20
-2.8125197522449185e-14
30
0
11
225.19999999999999
21
13.980000000000047
31
0
0
LINE
5
220
100
AcDbEntity
8
0
100
AcDbLine
10
225.20000000000005
20
4.5032328315781685e-14
30
0
11
239.18000000000001
21
13.980000000000008
31
0
0
LWPOLYLINE
5
221
100
AcDbEntity
8
0
100
AcDbPolyline
90
6
70
1
43
0.0
10
252.99000000000001
20
53.989999999743063
10
252.99000000000004
20
17.289999999743046
10
230.49000000000004
20
17.289999999743067
10
230.49000000000004
20
35.989999999743048
10
225.99000000000007
20
35.989999999743048
10
225.99000000000004
20
53.989999999743048
0
LWPOLYLINE
5
222
100
AcDbEntity
8
0
100
AcDbPolyline
90
4
70
1
43
0.0
10
267.76247941225154
20
56.999999999984368
10
281.74247941225156
20
56.999999999985711
10
281.74247941225156
20
70.979999999985068
10
267.76247941225154
20
70.979999999984372
0
LINE
5
223
100
AcDbEntity
8
0
100
AcDbLine
10
267.76247941225154
20
70.979999999984372
30
0
11
281.74247941225156
21
56.999999999985711
31
0
0
LINE
5
224
100
AcDbEntity
8
0
100
AcDbLine
10
267.76247941225154
20
56.999999999984368
30
0
11
281.74247941225156
21
70.979999999985068
31
0
0
LWPOLYLINE
5
225
100
AcDbEntity
8
0
100
AcDbPolyline
90
4
70
1
43
0.0
10
283.75247941225149
20
54.98999999998496
10
265.75247941225149
20
54.989999999985116
10
265.75247941225149
20
72.989999999985116
10
283.75247941225149
20
72.989999999984917
0
LINE
5
226
100
AcDbEntity
8
0
100
AcDbLine
10
283.75247941225149
20
54.98999999998496
30
0
11
265.75247941225149
21
72.989999999985116
31
0
0
LINE
5
227
100
AcDbEntity
8
0
100
AcDbLine
10
265.75247941225149
20
54.989999999985116
30
0
11
283.75247941225149
21
72.989999999984917
31
0
0
LWPOLYLINE
5
228
100
AcDbEntity
8
0
100
AcDbPolyline
90
3
70
1
43
0.0
10
302.75247941225149
20
72.989999999984917
10
302.75247941225143
20
54.98999999998496
10
284.75247941225143
20
72.989999999985045
0
LWPOLYLINE
5
229
100
AcDbEntity
8
0
100
AcDbPolyline
90
4
70
1
43
0.0
10
300.74247941225156
20
70.979999999985068
10
286.76247941225148
20
70.979999999984372
10
286.76247941225148
20
56.999999999984368
10
300.74247941225156
20
56.999999999985711
0
LINE
5
230
100
AcDbEntity
8
0
100
AcDbLine
10
302.75247941225143
20
54.98999999998496
30
0
11
284.75247941225143
21
54.989999999985045
31
0
0
LINE
5
231
100
AcDbEntity
8
0
100
AcDbLine
10
284.75247941225143
20
54.989999999985045
30
0
11
302.75247941225149
21
72.989999999984917
31
0
0
LINE
5
232
100
AcDbEntity
8
0
100
AcDbLine
10
286.76247941225148
20
56.999999999984368
30
0
11
300.74247941225156
21
70.979999999985068
31
0
0
LINE
5
233
100
AcDbEntity
8
0
100
AcDbLine
10
286.76247941225148
20
70.979999999984372
30
0
11
300.74247941225156
21
56.999999999985711
31
0
0
LINE
5
234
100
AcDbEntity
8
0
100
AcDbLine
10
284.75247941225143
20
54.989999999985045
30
0
11
284.75247941225143
21
72.989999999985045
31
0
0
LWPOLYLINE
5
235
100
AcDbEntity
8
0
100
AcDbPolyline
90
3
70
1
43
0.0
10
321.75247941225155
20
72.989999999984917
10
321.75247941225155
20
54.98999999998496
10
303.75247941225149
20
72.989999999985045
0
LWPOLYLINE
5
236
100
AcDbEntity
8
0
100
AcDbPolyline
90
4
70
1
43
0.0
10
319.7424794122515
20
70.979999999985068
10
305.76247941225148
20
70.979999999984372
10
305.76247941225148
20
56.999999999984368
10
319.74247941225156
20
56.999999999985711
0
LINE
5
237
100
AcDbEntity
8
0
100
AcDbLine
10
321.75247941225155
20
54.98999999998496
30
0
11
303.75247941225149
21
54.989999999985045
31
0
0
LINE
5
238
100
AcDbEntity
8
0
100
AcDbLine
10
303.75247941225149
20
54.989999999985045
30
0
11
321.75247941225155
21
72.989999999984917
31
0
0
LINE
5
239
100
AcDbEntity
8
0
100
AcDbLine
10
305.76247941225148
20
56.999999999984368
30
0
11
319.7424794122515
21
70.979999999985068
31
0
0
LINE
5
240
100
AcDbEntity
8
0
100
AcDbLine
10
305.76247941225148
20
70.979999999984372
30
0
11
319.74247941225156
21
56.999999999985711
31
0
0
LINE
5
241
100
AcDbEntity
8
0
100
AcDbLine
10
303.75247941225149
20
54.989999999985045
30
0
11
303.75247941225149
21
72.989999999985045
31
0
0
LWPOLYLINE
5
242
100
AcDbEntity
8
0
100
AcDbPolyline
90
3
70
1
43
0.0
10
340.75247941225155
20
72.989999999984917
10
340.75247941225143
20
54.98999999998496
10
322.75247941225143
20
72.989999999985045
0
LWPOLYLINE
5
243
100
AcDbEntity
8
0
100
AcDbPolyline
90
4
70
1
43
0.0
10
338.74247941225144
20
70.979999999985068
10
324.76247941225154
20
70.979999999984372
10
324.76247941225154
20
56.999999999984368
10
338.7424794122515
20
56.999999999985711
0
LINE
5
244
100
AcDbEntity
8
0
100
AcDbLine
10
340.75247941225143
20
54.98999999998496
30
0
11
322.75247941225143
21
54.989999999985045
31
0
0
LINE
5
245
100
AcDbEntity
8
0
100
AcDbLine
10
322.75247941225143
20
54.989999999985045
30
0
11
340.75247941225155
21
72.989999999984917
31
0
0
LINE
5
246
100
AcDbEntity
8
0
100
AcDbLine
10
324.76247941225154
20
56.999999999984368
30
0
11
338.74247941225144
21
70.979999999985068
31
0
0
LINE
5
247
100
AcDbEntity
8
0
100
AcDbLine
10
324.76247941225154
20
70.979999999984372
30
0
11
338.7424794122515
21
56.999999999985711
31
0
0
LINE
5
248
100
AcDbEntity
8
0
100
AcDbLine
10
322.75247941225143
20
54.989999999985045
30
0
11
322.75247941225143
21
72.989999999985045
31
0
0
LWPOLYLINE
5
249
100
AcDbEntity
8
0
100
AcDbPolyline
90
3
70
1
43
0.0
10
283.75247941225149
20
53.98999999998491
10
283.75247941225149
20
35.989999999984953
10
265.75247941225149
20
53.989999999985045
0
LWPOLYLINE
5
250
100
AcDbEntity
8
0
100
AcDbPolyline
90
4
70
1
43
0.0
10
281.74247941225156
20
51.979999999985068
10
267.76247941225154
20
51.979999999984372
10
267.76247941225154
20
37.999999999984368
10
281.74247941225156
20
37.999999999985704
0
LINE
5
251
100
AcDbEntity
8
0
100
AcDbLine
10
283.75247941225149
20
35.989999999984953
30
0
11
265.75247941225149
21
35.989999999985052
31
0
0
LINE
5
252
100
AcDbEntity
8
0
100
AcDbLine
10
265.75247941225149
20
35.989999999985052
30
0
11
283.75247941225149
21
53.98999999998491
31
0
0
LINE
5
253
100
AcDbEntity
8
0
100
AcDbLine
10
267.76247941225154
20
37.999999999984368
30
0
11
281.74247941225156
21
51.979999999985068
31
0
0
LINE
5
254
100
AcDbEntity
8
0
100
AcDbLine
10
267.76247941225154
20
51.979999999984372
30
0
11
281.74247941225156
21
37.999999999985704
31
0
0
LINE
5
255
100
AcDbEntity
8
0
100
AcDbLine
10
265.75247941225149
20
35.989999999985052
30
0
11
265.75247941225149
21
53.989999999985045
31
0
0
LWPOLYLINE
5
256
100
AcDbEntity
8
0
100
AcDbPolyline
90
3
70
1
43
0.0
10
302.75247941225149
20
53.98999999998491
10
302.75247941225143
20
35.989999999984953
10
284.75247941225143
20
53.989999999985045
0
LWPOLYLINE
5
257
100
AcDbEntity
8
0
100
AcDbPolyline
90
4
70
1
43
0.0
10
300.74247941225156
20
51.979999999985068
10
286.76247941225148
20
51.979999999984372
10
286.76247941225148
20
37.999999999984368
10
300.74247941225156
20
37.999999999985704
0
LINE
5
258
100
AcDbEntity
8
0
100
AcDbLine
10
302.75247941225143
20
35.989999999984953
30
0
11
284.75247941225143
21
35.989999999985052
31
0
0
LINE
5
259
100
AcDbEntity
8
0
100
AcDbLine
10
284.75247941225143
20
35.989999999985052
30
0
11
302.75247941225149
21
53.98999999998491
31
0
0
LINE
5
260
100
AcDbEntity
8
0
100
AcDbLine
10
286.76247941225148
20
37.999999999984368
30
0
11
300.74247941225156
21
51.979999999985068
31
0
0
LINE
5
261
100
AcDbEntity
8
0
100
AcDbLine
10
286.76247941225148
20
51.979999999984372
30
0
11
300.74247941225156
21
37.999999999985704
31
0
0
LINE
5
262
100
AcDbEntity
8
0
100
AcDbLine
10
284.75247941225143
20
35.989999999985052
30
0
11
284.75247941225143
21
53.989999999985045
31
0
0
LWPOLYLINE
5
263
100
AcDbEntity
8
0
100
AcDbPolyline
90
3
70
1
43
0.0
10
321.75247941225155
20
53.98999999998491
10
321.75247941225155
20
35.989999999984953
10
303.75247941225149
20
53.989999999985045
0
LWPOLYLINE
5
264
100
AcDbEntity
8
0
100
AcDbPolyline
90
4
70
1
43
0.0
10
319.7424794122515
20
51.979999999985068
10
305.76247941225148
20
51.979999999984372
10
305.76247941225148
20
37.999999999984368
10
319.74247941225156
20
37.999999999985704
0
LINE
5
265
100
AcDbEntity
8
0
100
AcDbLine
10
321.75247941225155
20
35.989999999984953
30
0
11
303.75247941225149
21
35.989999999985052
31
0
0
LINE
5
266
100
AcDbEntity
8
0
100
AcDbLine
10
303.75247941225149
20
35.989999999985052
30
0
11
321.75247941225155
21
53.98999999998491
31
0
0
LINE
5
267
100
AcDbEntity
8
0
100
AcDbLine
10
305.76247941225148
20
37.999999999984368
30
0
11
319.7424794122515
21
51.979999999985068
31
0
0
LINE
5
268
100
AcDbEntity
8
0
100
AcDbLine
10
305.76247941225148
20
51.979999999984372
30
0
11
319.74247941225156
21
37.999999999985704
31
0
0
LINE
5
269
100
AcDbEntity
8
0
100
AcDbLine
10
303.75247941225149
20
35.989999999985052
30
0
11
303.75247941225149
21
53.989999999985045
31
0
0
LWPOLYLINE
5
270
100
AcDbEntity
8
0
100
AcDbPolyline
90
3
70
1
43
0.0
10
283.75247941225149
20
34.98999999998491
10
283.75247941225149
20
16.989999999984949
10
265.75247941225149
20
34.989999999985045
0
LWPOLYLINE
5
271
100
AcDbEntity
8
0
100
AcDbPolyline
90
4
70
1
43
0.0
10
281.74247941225156
20
32.979999999985068
10
267.76247941225154
20
32.979999999984372
10
267.76247941225154
20
18.999999999984375
10
281.74247941225156
20
18.9999999999857
0
LINE
5
272
100
AcDbEntity
8
0
100
AcDbLine
10
283.75247941225149
20
16.989999999984949
30
0
11
265.75247941225149
21
16.989999999985045
31
0
0
LINE
5
273
100
AcDbEntity
8
0
100
AcDbLine
10
265.75247941225149
20
16.989999999985045
30
0
11
283.75247941225149
21
34.98999999998491
31
0
0
LINE
5
274
100
AcDbEntity
8
0
100
AcDbLine
10
267.76247941225154
20
18.999999999984375
30
0
11
281.74247941225156
21
32.979999999985068
31
0
0
LINE
5
275
100
AcDbEntity
8
0
100
AcDbLine
10
267.76247941225154
20
32.979999999984372
30
0
11
281.74247941225156
21
18.9999999999857
31
0
0
LINE
5
276
100
AcDbEntity
8
0
100
AcDbLine
10
265.75247941225149
20
16.989999999985045
30
0
11
265.75247941225149
21
34.989999999985045
31
0
0
LWPOLYLINE
5
277
100
AcDbEntity
8
0
100
AcDbPolyline
90
3
70
1
43
0.0
10
302.75247941225149
20
34.98999999998491
10
302.75247941225143
20
16.989999999984949
10
284.75247941225143
20
34.989999999985045
0
LWPOLYLINE
5
278
100
AcDbEntity
8
0
100
AcDbPolyline
90
4
70
1
43
0.0
10
300.74247941225156
20
32.979999999985068
10
286.76247941225148
20
32.979999999984372
10
286.76247941225148
20
18.999999999984375
10
300.74247941225156
20
18.9999999999857
0
LINE
5
279
100
AcDbEntity
8
0
100
AcDbLine
10
302.75247941225143
20
16.989999999984949
30
0
11
284.75247941225143
21
16.989999999985045
31
0
0
LINE
5
280
100
AcDbEntity
8
0
100
AcDbLine
10
284.75247941225143
20
16.989999999985045
30
0
11
302.75247941225149
21
34.98999999998491
31
0
0
LINE
5
281
100
AcDbEntity
8
0
100
AcDbLine
10
286.76247941225148
20
18.999999999984375
30
0
11
300.74247941225156
21
32.979999999985068
31
0
0
LINE
5
282
100
AcDbEntity
8
0
100
AcDbLine
10
286.76247941225148
20
32.979999999984372
30
0
11
300.74247941225156
21
18.9999999999857
31
0
0
LINE
5
283
100
AcDbEntity
8
0
100
AcDbLine
10
284.75247941225143
20
16.989999999985045
30
0
11
284.75247941225143
21
34.989999999985045
31
0
0
LWPOLYLINE
5
284
100
AcDbEntity
8
0
100
AcDbPolyline
90
3
70
1
43
0.0
10
321.75247941225155
20
34.98999999998491
10
321.75247941225155
20
16.989999999984949
10
303.75247941225149
20
34.989999999985045
0
LWPOLYLINE
5
285
100
AcDbEntity
8
0
100
AcDbPolyline
90
4
70
1
43
0.0
10
319.7424794122515
20
32.979999999985068
10
305.76247941225148
20
32.979999999984372
10
305.76247941225148
20
18.999999999984375
10
319.74247941225156
20
18.9999999999857
0
LINE
5
286
100
AcDbEntity
8
0
100
AcDbLine
10
321.75247941225155
20
16.989999999984949
30
0
11
303.75247941225149
21
16.989999999985045
31
0
0
LINE
5
287
100
AcDbEntity
8
0
100
AcDbLine
10
303.75247941225149
20
16.989999999985045
30
0
11
321.75247941225155
21
34.98999999998491
31
0
0
LINE
5
288
100
AcDbEntity
8
0
100
AcDbLine
10
305.76247941225148
20
18.999999999984375
30
0
11
319.7424794122515
21
32.979999999985068
31
0
0
LINE
5
289
100
AcDbEntity
8
0
100
AcDbLine
10
305.76247941225148
20
32.979999999984372
30
0
11
319.74247941225156
21
18.9999999999857
31
0
0
LINE
5
290
100
AcDbEntity
8
0
100
AcDbLine
10
303.75247941225149
20
16.989999999985045
30
0
11
303.75247941225149
21
34.989999999985045
31
0
0
LWPOLYLINE
5
291
100
AcDbEntity
8
0
100
AcDbPolyline
90
3
70
1
43
0.0
10
283.75247941225149
20
15.989999999984917
10
283.75247941225149
20
-2.0100000000150477
10
265.75247941225149
20
15.989999999985043
0
LWPOLYLINE
5
292
100
AcDbEntity
8
0
100
AcDbPolyline
90
4
70
1
43
0.0
10
281.74247941225156
20
13.979999999985075
10
267.76247941225154
20
13.979999999984381
10
267.76247941225154
20
-1.5628054406136016e-11
10
281.74247941225156
20
-1.4295953322684428e-11
0
LINE
5
293
100
AcDbEntity
8
0
100
AcDbLine
10
283.75247941225149
20
-2.0100000000150477
30
0
11
265.75247941225149
21
-2.0100000000149523
31
0
0
LINE
5
294
100
AcDbEntity
8
0
100
AcDbLine
10
265.75247941225149
20
-2.0100000000149523
30
0
11
283.75247941225149
21
15.989999999984917
31
0
0
LINE
5
295
100
AcDbEntity
8
0
100
AcDbLine
10
267.76247941225154
20
-1.5628054406136016e-11
30
0
11
281.74247941225156
21
13.979999999985075
31
0
0
LINE
5
296
100
AcDbEntity
8
0
100
AcDbLine
10
267.76247941225154
20
13.979999999984381
30
0
11
281.74247941225156
21
-1.4295953322684428e-11
31
0
0
LINE
5
297
100
AcDbEntity
8
0
100
AcDbLine
10
265.75247941225149
20
-2.0100000000149523
30
0
11
265.75247941225149
21
15.989999999985043
31
0
0
LWPOLYLINE
5
298
100
AcDbEntity
8
0
100
AcDbPolyline
90
3
70
1
43
0.0
10
302.75247941225149
20
15.989999999984917
10
302.75247941225143
20
-2.0100000000150477
10
284.75247941225143
20
15.989999999985043
0
LWPOLYLINE
5
299
100
AcDbEntity
8
0
100
AcDbPolyline
90
4
70
1
43
0.0
10
300.74247941225156
20
13.979999999985075
10
286.76247941225148
20
13.979999999984381
10
286.76247941225148
20
-1.5628054406136016e-11
10
300.74247941225156
20
-1.4295953322684428e-11
0
LINE
5
300
100
AcDbEntity
8
0
100
AcDbLine
10
302.75247941225143
20
-2.0100000000150477
30
0
11
284.75247941225143
21
-2.0100000000149523
31
0
0
LINE
5
301
100
AcDbEntity
8
0
100
AcDbLine
10
284.75247941225143
20
-2.0100000000149523
30
0
11
302.75247941225149
21
15.989999999984917
31
0
0
LINE
5
302
100
AcDbEntity
8
0
100
AcDbLine
10
286.76247941225148
20
-1.5628054406136016e-11
30
0
11
300.74247941225156
21
13.979999999985075
31
0
0
LINE
5
303
100
AcDbEntity
8
0
100
AcDbLine
10
286.76247941225148
20
13.979999999984381
30
0
11
300.74247941225156
21
-1.4295953322684428e-11
31
0
0
LINE
5
304
100
AcDbEntity
8
0
100
AcDbLine
10
284.75247941225143
20
-2.0100000000149523
30
0
11
284.75247941225143
21
15.989999999985043
31
0
0
LWPOLYLINE
5
305
100
AcDbEntity
8
0
100
AcDbPolyline
90
3
70
1
43
0.0
10
321.75247941225155
20
15.989999999984917
10
321.75247941225155
20
-2.0100000000150477
10
303.75247941225149
20
15.989999999985043
0
LWPOLYLINE
5
306
100
AcDbEntity
8
0
100
AcDbPolyline
90
4
70
1
43
0.0
10
319.7424794122515
20
13.979999999985075
10
305.76247941225148
20
13.979999999984381
10
305.76247941225148
20
-1.5628054406136016e-11
10
319.74247941225156
20
-1.4295953322684428e-11
0
LINE
5
307
100
AcDbEntity
8
0
100
AcDbLine
10
321.75247941225155
20
-2.0100000000150477
30
0
11
303.75247941225149
21
-2.0100000000149523
31
0
0
LINE
5
308
100
AcDbEntity
8
0
100
AcDbLine
10
303.75247941225149
20
-2.0100000000149523
30
0
11
321.75247941225155
21
15.989999999984917
31
0
0
LINE
5
309
100
AcDbEntity
8
0
100
AcDbLine
10
305.76247941225148
20
-1.5628054406136016e-11
30
0
11
319.7424794122515
21
13.979999999985075
31
0
0
LINE
5
310
100
AcDbEntity
8
0
100
AcDbLine
10
305.76247941225148
20
13.979999999984381
30
0
11
319.74247941225156
21
-1.4295953322684428e-11
31
0
0
LINE
5
311
100
AcDbEntity
8
0
100
AcDbLine
10
303.75247941225149
20
-2.0100000000149523
30
0
11
303.75247941225149
21
15.989999999985043
31
0
0
LWPOLYLINE
5
312
100
AcDbEntity
8
0
100
AcDbPolyline
90
3
70
1
43
0.0
10
321.75247941225155
20
-3.0100000000150908
10
321.75247941225155
20
-21.010000000015051
10
303.75247941225149
20
-3.0100000000149576
0
LWPOLYLINE
5
313
100
AcDbEntity
8
0
100
AcDbPolyline
90
4
70
1
43
0.0
10
319.7424794122515
20
-5.0200000000149281
10
305.76247941225148
20
-5.0200000000156253
10
305.76247941225148
20
-19.000000000015628
10
319.74247941225156
20
-19.0000000000143
0
LINE
5
314
100
AcDbEntity
8
0
100
AcDbLine
10
321.75247941225155
20
-21.010000000015051
30
0
11
303.75247941225149
21
-21.010000000014951
31
0
0
LINE
5
315
100
AcDbEntity
8
0
100
AcDbLine
10
303.75247941225149
20
-21.010000000014951
30
0
11
321.75247941225155
21
-3.0100000000150908
31
0
0
LINE
5
316
100
AcDbEntity
8
0
100
AcDbLine
10
305.76247941225148
20
-19.000000000015628
30
0
11
319.7424794122515
21
-5.0200000000149281
31
0
0
LINE
5
317
100
AcDbEntity
8
0
100
AcDbLine
10
305.76247941225148
20
-5.0200000000156253
30
0
11
319.74247941225156
21
-19.0000000000143
31
0
0
LINE
5
318
100
AcDbEntity
8
0
100
AcDbLine
10
303.75247941225149
20
-21.010000000014951
30
0
11
303.75247941225149
21
-3.0100000000149576
31
0
0
LWPOLYLINE
5
319
100
AcDbEntity
8
0
100
AcDbPolyline
90
4
70
1
43
0.0
10
277.2624794122475
20
-5.0200000000130371
10
291.24247941224746
20
-5.0200000000130434
10
291.24247941224769
20
-19.000000000012999
10
277.2624794122475
20
-19.000000000013046
0
LINE
5
320
100
AcDbEntity
8
0
100
AcDbLine
10
277.2624794122475
20
-5.0200000000130371
30
0
11
291.24247941224769
21
-19.000000000012999
31
0
0
LINE
5
321
100
AcDbEntity
8
0
100
AcDbLine
10
277.2624794122475
20
-19.000000000013046
30
0
11
291.24247941224746
21
-5.0200000000130434
31
0
0
LWPOLYLINE
5
322
100
AcDbEntity
8
0
100
AcDbPolyline
90
4
70
1
43
0.0
10
265.75247941225149
20
-3.0100000000149691
10
302.75247941225155
20
-3.010000000014958
10
302.75247941225155
20
-21.01000000001541
10
265.75247941225155
20
-21.010000000007508
0
LINE
5
323
100
AcDbEntity
8
0
100
AcDbLine
10
265.75247941225149
20
-3.0100000000149691
30
0
11
302.75247941225155
21
-21.01000000001541
31
0
0
LINE
5
324
100
AcDbEntity
8
0
100
AcDbLine
10
302.75247941225155
20
-3.010000000014958
30
0
11
265.75247941225155
21
-21.010000000007508
31
0
0
LWPOLYLINE
5
325
100
AcDbEntity
8
0
100
AcDbPolyline
90
4
70
1
43
0.0
10
324.76247941225159
20
42.479999999984969
10
338.74247941225167
20
42.479999999984656
10
338.7424794122519
20
28.499999999982549
10
324.76247941225159
20
28.499999999984965
0
LINE
5
326
100
AcDbEntity
8
0
100
AcDbLine
10
324.76247941225159
20
42.479999999984969
30
0
11
338.7424794122519
21
28.499999999982549
31
0
0
LINE
5
327
100
AcDbEntity
8
0
100
AcDbLine
10
324.76247941225159
20
28.499999999984965
30
0
11
338.74247941225167
21
42.479999999984656
31
0
0
LWPOLYLINE
5
328
100
AcDbEntity
8
0
100
AcDbPolyline
90
4
70
1
43
0.0
10
340.75247941225166
20
53.989999999984875
10
322.75247941225166
20
53.98999999998491
10
322.75247941225166
20
16.989999999984889
10
340.75247941225166
20
16.989999999984903
0
LINE
5
329
100
AcDbEntity
8
0
100
AcDbLine
10
340.75247941225166
20
53.989999999984875
30
0
11
322.75247941225166
21
16.989999999984889
31
0
0
LINE
5
330
100
AcDbEntity
8
0
100
AcDbLine
10
322.75247941225166
20
53.98999999998491
30
0
11
340.75247941225166
21
16.989999999984903
31
0
0
LWPOLYLINE
5
331
100
AcDbEntity
8
0
100
AcDbPolyline
90
3
70
1
43
0.0
10
322.75247941225166
20
15.989999999984978
10
340.75247941225166
20
-21.010000000015104
10
322.75247941225166
20
-21.010000000015037
0
LINE
5
332
100
AcDbEntity
8
0
100
AcDbLine
10
340.75247941225166
20
-21.010000000015104
30
0
11
340.75247941225166
21
15.989999999984882
31
0
0
LINE
5
333
100
AcDbEntity
8
0
100
AcDbLine
10
340.75247941225166
20
15.989999999984882
30
0
11
322.75247941225166
21
-21.010000000015037
31
0
0
LINE
5
334
100
AcDbEntity
8
0
100
AcDbLine
10
340.75247941225166
20
15.989999999984882
30
0
11
322.75247941225166
21
15.989999999984978
31
0
0
LINE
5
335
100
AcDbEntity
8
0
100
AcDbLine
10
324.76247941225159
20
-9.5000000000150386
30
0
11
324.76247941225159
21
4.4799999999849671
31
0
0
LWPOLYLINE
5
336
100
AcDbEntity
8
0
100
AcDbPolyline
90
4
70
1
43
0.0
10
324.76247941225159
20
4.4799999999849671
10
338.7424794122519
20
-9.5000000000174545
10
324.76247941225159
20
-9.5000000000150386
10
338.74247941225167
20
4.4799999999846571
0
LINE
5
337
100
AcDbEntity
8
0
100
AcDbLine
10
338.74247941225167
20
4.4799999999846571
30
0
11
338.7424794122519
21
-9.5000000000174545
31
0
0
LWPOLYLINE
5
338
100
AcDbEntity
8
0
100
AcDbPolyline
90
4
70
1
43
0.0
10
-32.499999999999993
20
70.939999999999955
10
-18.52
20
70.939999999999955
10
-18.519999999999996
20
56.959999999999965
10
-32.499999999999993
20
56.959999999999951
0
LINE
5
339
100
AcDbEntity
8
0
100
AcDbLine
10
-32.499999999999993
20
70.939999999999955
30
0
11
-18.519999999999996
21
56.959999999999965
31
0
0
LINE
5
340
100
AcDbEntity
8
0
100
AcDbLine
10
-32.499999999999993
20
56.959999999999951
30
0
11
-18.52
21
70.939999999999955
31
0
0
LWPOLYLINE
5
341
100
AcDbEntity
8
0
100
AcDbPolyline
90
4
70
1
43
0.0
10
-16.510000000000005
20
54.949999999999946
10
-34.510000000000012
20
54.949999999999932
10
-34.510000000000012
20
72.949999999999932
10
-16.510000000000012
20
72.949999999999932
0
LINE
5
342
100
AcDbEntity
8
0
100
AcDbLine
10
-16.510000000000005
20
54.949999999999946
30
0
11
-34.510000000000012
21
72.949999999999932
31
0
0
LINE
5
343
100
AcDbEntity
8
0
100
AcDbLine
10
-34.510000000000012
20
54.949999999999932
30
0
11
-16.510000000000012
21
72.949999999999932
31
0
0
LWPOLYLINE
5
344
100
AcDbEntity
8
0
100
AcDbPolyline
90
3
70
1
43
0.0
10
-13.499999999999996
20
70.939999999999955
10
0.4800000000000022
20
70.939999999999955
10
0.48000000000000709
20
56.959999999999965
0
LWPOLYLINE
5
345
100
AcDbEntity
8
0
100
AcDbPolyline
90
3
70
1
43
0.0
10
-15.510000000000012
20
72.949999999999932
10
2.4899999999999873
20
72.949999999999932
10
2.489999999999994
20
54.949999999999946
0
LINE
5
346
100
AcDbEntity
8
0
100
AcDbLine
10
-13.499999999999995
20
56.959999999999951
30
0
11
-13.499999999999996
21
70.939999999999955
31
0
0
LINE
5
347
100
AcDbEntity
8
0
100
AcDbLine
10
-15.510000000000009
20
54.949999999999932
30
0
11
2.4899999999999873
21
72.949999999999932
31
0
0
LINE
5
348
100
AcDbEntity
8
0
100
AcDbLine
10
-13.499999999999995
20
56.959999999999951
30
0
11
0.4800000000000022
21
70.939999999999955
31
0
0
LINE
5
349
100
AcDbEntity
8
0
100
AcDbLine
10
-15.510000000000009
20
54.949999999999932
30
0
11
-15.510000000000012
21
72.949999999999932
31
0
0
LINE
5
350
100
AcDbEntity
8
0
100
AcDbLine
10
0.48000000000000653
20
56.959999999999965
30
0
11
-13.499999999999995
21
56.959999999999951
31
0
0
LINE
5
351
100
AcDbEntity
8
0
100
AcDbLine
10
2.489999999999994
20
54.949999999999946
30
0
11
-15.510000000000009
21
54.949999999999932
31
0
0
LWPOLYLINE
5
352
100
AcDbEntity
8
0
100
AcDbPolyline
90
3
70
1
43
0.0
10
5.5000000000000062
20
70.939999999999955
10
19.480000000000004
20
70.939999999999955
10
19.480000000000008
20
56.959999999999965
0
LWPOLYLINE
5
353
100
AcDbEntity
8
0
100
AcDbPolyline
90
3
70
1
43
0.0
10
3.4899999999999878
20
72.949999999999932
10
21.489999999999991
20
72.949999999999932
10
21.489999999999995
20
54.949999999999946
0
LINE
5
354
100
AcDbEntity
8
0
100
AcDbLine
10
5.5000000000000071
20
56.959999999999951
30
0
11
5.5000000000000062
21
70.939999999999955
31
0
0
LINE
5
355
100
AcDbEntity
8
0
100
AcDbLine
10
3.4899999999999922
20
54.949999999999932
30
0
11
21.489999999999991
21
72.949999999999932
31
0
0
LINE
5
356
100
AcDbEntity
8
0
100
AcDbLine
10
5.5000000000000071
20
56.959999999999951
30
0
11
19.480000000000004
21
70.939999999999955
31
0
0
LINE
5
357
100
AcDbEntity
8
0
100
AcDbLine
10
3.4899999999999922
20
54.949999999999932
30
0
11
3.4899999999999878
21
72.949999999999932
31
0
0
LINE
5
358
100
AcDbEntity
8
0
100
AcDbLine
10
19.480000000000008
20
56.959999999999965
30
0
11
5.5000000000000071
21
56.959999999999951
31
0
0
LINE
5
359
100
AcDbEntity
8
0
100
AcDbLine
10
21.489999999999995
20
54.949999999999946
30
0
11
3.4899999999999922
21
54.949999999999932
31
0
0
LWPOLYLINE
5
360
100
AcDbEntity
8
0
100
AcDbPolyline
90
3
70
1
43
0.0
10
24.500000000000007
20
70.939999999999955
10
38.479999999999997
20
70.939999999999955
10
38.480000000000004
20
56.959999999999965
0
LWPOLYLINE
5
361
100
AcDbEntity
8
0
100
AcDbPolyline
90
3
70
1
43
0.0
10
22.489999999999988
20
72.949999999999932
10
40.489999999999988
20
72.949999999999932
10
40.489999999999995
20
54.949999999999946
0
LINE
5
362
100
AcDbEntity
8
0
100
AcDbLine
10
24.500000000000007
20
56.959999999999951
30
0
11
24.500000000000007
21
70.939999999999955
31
0
0
LINE
5
363
100
AcDbEntity
8
0
100
AcDbLine
10
22.489999999999991
20
54.949999999999932
30
0
11
40.489999999999988
21
72.949999999999932
31
0
0
LINE
5
364
100
AcDbEntity
8
0
100
AcDbLine
10
24.500000000000007
20
56.959999999999951
30
0
11
38.479999999999997
21
70.939999999999955
31
0
0
LINE
5
365
100
AcDbEntity
8
0
100
AcDbLine
10
22.489999999999991
20
54.949999999999932
30
0
11
22.489999999999988
21
72.949999999999932
31
0
0
LINE
5
366
100
AcDbEntity
8
0
100
AcDbLine
10
38.480000000000004
20
56.959999999999965
30
0
11
24.500000000000007
21
56.959999999999951
31
0
0
LINE
5
367
100
AcDbEntity
8
0
100
AcDbLine
10
40.489999999999995
20
54.949999999999946
30
0
11
22.489999999999991
21
54.949999999999932
31
0
0
LWPOLYLINE
5
368
100
AcDbEntity
8
0
100
AcDbPolyline
90
3
70
1
43
0.0
10
43.500000000000007
20
70.939999999999955
10
57.480000000000004
20
70.939999999999955
10
57.480000000000011
20
56.959999999999965
0
LWPOLYLINE
5
369
100
AcDbEntity
8
0
100
AcDbPolyline
90
3
70
1
43
0.0
10
41.489999999999995
20
72.949999999999932
10
59.489999999999988
20
72.949999999999932
10
59.489999999999995
20
54.949999999999946
0
LINE
5
370
100
AcDbEntity
8
0
100
AcDbLine
10
43.500000000000007
20
56.959999999999951
30
0
11
43.500000000000007
21
70.939999999999955
31
0
0
LINE
5
371
100
AcDbEntity
8
0
100
AcDbLine
10
41.489999999999995
20
54.949999999999932
30
0
11
59.489999999999988
21
72.949999999999932
31
0
0
LINE
5
372
100
AcDbEntity
8
0
100
AcDbLine
10
43.500000000000007
20
56.959999999999951
30
0
11
57.480000000000004
21
70.939999999999955
31
0
0
LINE
5
373
100
AcDbEntity
8
0
100
AcDbLine
10
41.489999999999995
20
54.949999999999932
30
0
11
41.489999999999995
21
72.949999999999932
31
0
0
LINE
5
374
100
AcDbEntity
8
0
100
AcDbLine
10
57.480000000000011
20
56.959999999999965
30
0
11
43.500000000000007
21
56.959999999999951
31
0
0
LINE
5
375
100
AcDbEntity
8
0
100
AcDbLine
10
59.489999999999995
20
54.949999999999946
30
0
11
41.489999999999995
21
54.949999999999932
31
0
0
LWPOLYLINE
5
376
100
AcDbEntity
8
0
100
AcDbPolyline
90
3
70
1
43
0.0
10
62.500000000000007
20
70.939999999999955
10
76.47999999999999
20
70.939999999999955
10
76.480000000000004
20
56.959999999999965
0
LWPOLYLINE
5
377
100
AcDbEntity
8
0
100
AcDbPolyline
90
3
70
1
43
0.0
10
60.489999999999988
20
72.949999999999932
10
78.489999999999981
20
72.949999999999932
10
78.489999999999995
20
54.949999999999946
0
LINE
5
378
100
AcDbEntity
8
0
100
AcDbLine
10
62.500000000000007
20
56.959999999999951
30
0
11
62.500000000000007
21
70.939999999999955
31
0
0
LINE
5
379
100
AcDbEntity
8
0
100
AcDbLine
10
60.489999999999995
20
54.949999999999932
30
0
11
78.489999999999981
21
72.949999999999932
31
0
0
LINE
5
380
100
AcDbEntity
8
0
100
AcDbLine
10
62.500000000000007
20
56.959999999999951
30
0
11
76.47999999999999
21
70.939999999999955
31
0
0
LINE
5
381
100
AcDbEntity
8
0
100
AcDbLine
10
60.489999999999995
20
54.949999999999932
30
0
11
60.489999999999988
21
72.949999999999932
31
0
0
LINE
5
382
100
AcDbEntity
8
0
100
AcDbLine
10
76.480000000000004
20
56.959999999999965
30
0
11
62.500000000000007
21
56.959999999999951
31
0
0
LINE
5
383
100
AcDbEntity
8
0
100
AcDbLine
10
78.489999999999995
20
54.949999999999946
30
0
11
60.489999999999995
21
54.949999999999932
31
0
0
LWPOLYLINE
5
384
100
AcDbEntity
8
0
100
AcDbPolyline
90
3
70
1
43
0.0
10
81.5
20
70.939999999999955
10
95.480000000000018
20
70.939999999999955
10
95.480000000000018
20
56.959999999999965
0
LWPOLYLINE
5
385
100
AcDbEntity
8
0
100
AcDbPolyline
90
3
70
1
43
0.0
10
79.489999999999995
20
72.949999999999932
10
97.489999999999981
20
72.949999999999932
10
97.489999999999981
20
54.949999999999946
0
LINE
5
386
100
AcDbEntity
8
0
100
AcDbLine
10
81.5
20
56.959999999999951
30
0
11
81.5
21
70.939999999999955
31
0
0
LINE
5
387
100
AcDbEntity
8
0
100
AcDbLine
10
79.489999999999995
20
54.949999999999932
30
0
11
97.489999999999981
21
72.949999999999932
31
0
0
LINE
5
388
100
AcDbEntity
8
0
100
AcDbLine
10
81.5
20
56.959999999999951
30
0
11
95.480000000000018
21
70.939999999999955
31
0
0
LINE
5
389
100
AcDbEntity
8
0
100
AcDbLine
10
79.489999999999995
20
54.949999999999932
30
0
11
79.489999999999995
21
72.949999999999932
31
0
0
LINE
5
390
100
AcDbEntity
8
0
100
AcDbLine
10
95.480000000000018
20
56.959999999999965
30
0
11
81.5
21
56.959999999999951
31
0
0
LINE
5
391
100
AcDbEntity
8
0
100
AcDbLine
10
97.489999999999981
20
54.949999999999946
30
0
11
79.489999999999995
21
54.949999999999932
31
0
0
LWPOLYLINE
5
392
100
AcDbEntity
8
0
100
AcDbPolyline
90
3
70
1
43
0.0
10
100.5
20
70.939999999999955
10
114.48000000000002
20
70.939999999999955
10
114.48000000000002
20
56.959999999999965
0
LWPOLYLINE
5
393
100
AcDbEntity
8
0
100
AcDbPolyline
90
3
70
1
43
0.0
10
98.490000000000009
20
72.949999999999932
10
116.48999999999999
20
72.949999999999932
10
116.49000000000001
20
54.949999999999946
0
LINE
5
394
100
AcDbEntity
8
0
100
AcDbLine
10
100.5
20
56.959999999999951
30
0
11
100.5
21
70.939999999999955
31
0
0
LINE
5
395
100
AcDbEntity
8
0
100
AcDbLine
10
98.490000000000009
20
54.949999999999932
30
0
11
116.48999999999999
21
72.949999999999932
31
0
0
LINE
5
396
100
AcDbEntity
8
0
100
AcDbLine
10
100.5
20
56.959999999999951
30
0
11
114.48000000000002
21
70.939999999999955
31
0
0
LINE
5
397
100
AcDbEntity
8
0
100
AcDbLine
10
98.490000000000009
20
54.949999999999932
30
0
11
98.490000000000009
21
72.949999999999932
31
0
0
LINE
5
398
100
AcDbEntity
8
0
100
AcDbLine
10
114.48000000000002
20
56.959999999999965
30
0
11
100.5
21
56.959999999999951
31
0
0
LINE
5
399
100
AcDbEntity
8
0
100
AcDbLine
10
116.49000000000001
20
54.949999999999946
30
0
11
98.490000000000009
21
54.949999999999932
31
0
0
LWPOLYLINE
5
400
100
AcDbEntity
8
0
100
AcDbPolyline
90
3
70
1
43
0.0
10
119.50000000000001
20
70.939999999999955
10
133.48000000000002
20
70.939999999999955
10
133.48000000000002
20
56.959999999999965
0
LWPOLYLINE
5
401
100
AcDbEntity
8
0
100
AcDbPolyline
90
3
70
1
43
0.0
10
117.48999999999998
20
72.949999999999932
10
135.49000000000001
20
72.949999999999932
10
135.49000000000001
20
54.949999999999946
0
LINE
5
402
100
AcDbEntity
8
0
100
AcDbLine
10
119.50000000000001
20
56.959999999999951
30
0
11
119.50000000000001
21
70.939999999999955
31
0
0
LINE
5
403
100
AcDbEntity
8
0
100
AcDbLine
10
117.49000000000001
20
54.949999999999932
30
0
11
135.49000000000001
21
72.949999999999932
31
0
0
LINE
5
404
100
AcDbEntity
8
0
100
AcDbLine
10
119.50000000000001
20
56.959999999999951
30
0
11
133.48000000000002
21
70.939999999999955
31
0
0
LINE
5
405
100
AcDbEntity
8
0
100
AcDbLine
10
117.49000000000001
20
54.949999999999932
30
0
11
117.48999999999998
21
72.949999999999932
31
0
0
LINE
5
406
100
AcDbEntity
8
0
100
AcDbLine
10
133.48000000000002
20
56.959999999999965
30
0
11
119.50000000000001
21
56.959999999999951
31
0
0
LINE
5
407
100
AcDbEntity
8
0
100
AcDbLine
10
135.49000000000001
20
54.949999999999946
30
0
11
117.49000000000001
21
54.949999999999932
31
0
0
LWPOLYLINE
5
408
100
AcDbEntity
8
0
100
AcDbPolyline
90
3
70
1
43
0.0
10
138.5
20
70.939999999999955
10
152.48000000000002
20
70.939999999999955
10
152.48000000000002
20
56.959999999999965
0
LWPOLYLINE
5
409
100
AcDbEntity
8
0
100
AcDbPolyline
90
3
70
1
43
0.0
10
136.49000000000001
20
72.949999999999932
10
154.49000000000001
20
72.949999999999932
10
154.49000000000001
20
54.949999999999946
0
LINE
5
410
100
AcDbEntity
8
0
100
AcDbLine
10
138.5
20
56.959999999999951
30
0
11
138.5
21
70.939999999999955
31
0
0
LINE
5
411
100
AcDbEntity
8
0
100
AcDbLine
10
136.49000000000001
20
54.949999999999932
30
0
11
154.49000000000001
21
72.949999999999932
31
0
0
LINE
5
412
100
AcDbEntity
8
0
100
AcDbLine
10
138.5
20
56.959999999999951
30
0
11
152.48000000000002
21
70.939999999999955
31
0
0
LINE
5
413
100
AcDbEntity
8
0
100
AcDbLine
10
136.49000000000001
20
54.949999999999932
30
0
11
136.49000000000001
21
72.949999999999932
31
0
0
LINE
5
414
100
AcDbEntity
8
0
100
AcDbLine
10
152.48000000000002
20
56.959999999999965
30
0
11
138.5
21
56.959999999999951
31
0
0
LINE
5
415
100
AcDbEntity
8
0
100
AcDbLine
10
154.49000000000001
20
54.949999999999946
30
0
11
136.49000000000001
21
54.949999999999932
31
0
0
LWPOLYLINE
5
416
100
AcDbEntity
8
0
100
AcDbPolyline
90
3
70
1
43
0.0
10
157.5
20
70.939999999999955
10
171.47999999999999
20
70.939999999999955
10
171.47999999999999
20
56.959999999999965
0
LWPOLYLINE
5
417
100
AcDbEntity
8
0
100
AcDbPolyline
90
3
70
1
43
0.0
10
155.49000000000001
20
72.949999999999932
10
173.49000000000001
20
72.949999999999932
10
173.49000000000001
20
54.949999999999946
0
LINE
5
418
100
AcDbEntity
8
0
100
AcDbLine
10
157.5
20
56.959999999999951
30
0
11
157.5
21
70.939999999999955
31
0
0
LINE
5
419
100
AcDbEntity
8
0
100
AcDbLine
10
155.49000000000001
20
54.949999999999932
30
0
11
173.49000000000001
21
72.949999999999932
31
0
0
LINE
5
420
100
AcDbEntity
8
0
100
AcDbLine
10
157.5
20
56.959999999999951
30
0
11
171.47999999999999
21
70.939999999999955
31
0
0
LINE
5
421
100
AcDbEntity
8
0
100
AcDbLine
10
155.49000000000001
20
54.949999999999932
30
0
11
155.49000000000001
21
72.949999999999932
31
0
0
LINE
5
422
100
AcDbEntity
8
0
100
AcDbLine
10
171.47999999999999
20
56.959999999999965
30
0
11
157.5
21
56.959999999999951
31
0
0
LINE
5
423
100
AcDbEntity
8
0
100
AcDbLine
10
173.49000000000001
20
54.949999999999946
30
0
11
155.49000000000001
21
54.949999999999932
31
0
0
LWPOLYLINE
5
424
100
AcDbEntity
8
0
100
AcDbPolyline
90
3
70
1
43
0.0
10
176.50000000000003
20
70.939999999999955
10
190.48000000000002
20
70.939999999999955
10
190.48000000000002
20
56.959999999999965
0
LWPOLYLINE
5
425
100
AcDbEntity
8
0
100
AcDbPolyline
90
3
70
1
43
0.0
10
174.49000000000001
20
72.949999999999932
10
192.49000000000001
20
72.949999999999932
10
192.49000000000001
20
54.949999999999946
0
LINE
5
426
100
AcDbEntity
8
0
100
AcDbLine
10
176.50000000000003
20
56.959999999999951
30
0
11
176.50000000000003
21
70.939999999999955
31
0
0
LINE
5
427
100
AcDbEntity
8
0
100
AcDbLine
10
174.49000000000001
20
54.949999999999932
30
0
11
192.49000000000001
21
72.949999999999932
31
0
0
LINE
5
428
100
AcDbEntity
8
0
100
AcDbLine
10
176.50000000000003
20
56.959999999999951
30
0
11
190.48000000000002
21
70.939999999999955
31
0
0
LINE
5
429
100
AcDbEntity
8
0
100
AcDbLine
10
174.49000000000001
20
54.949999999999932
30
0
11
174.49000000000001
21
72.949999999999932
31
0
0
LINE
5
430
100
AcDbEntity
8
0
100
AcDbLine
10
190.48000000000002
20
56.959999999999965
30
0
11
176.50000000000003
21
56.959999999999951
31
0
0
LINE
5
431
100
AcDbEntity
8
0
100
AcDbLine
10
192.49000000000001
20
54.949999999999946
30
0
11
174.49000000000001
21
54.949999999999932
31
0
0
LWPOLYLINE
5
432
100
AcDbEntity
8
0
100
AcDbPolyline
90
3
70
1
43
0.0
10
195.5
20
70.939999999999955
10
209.48000000000002
20
70.939999999999955
10
209.48000000000002
20
56.959999999999965
0
LWPOLYLINE
5
433
100
AcDbEntity
8
0
100
AcDbPolyline
90
3
70
1
43
0.0
10
193.49000000000001
20
72.949999999999932
10
211.49000000000001
20
72.949999999999932
10
211.49000000000001
20
54.949999999999946
0
LINE
5
434
100
AcDbEntity
8
0
100
AcDbLine
10
195.5
20
56.959999999999951
30
0
11
195.5
21
70.939999999999955
31
0
0
LINE
5
435
100
AcDbEntity
8
0
100
AcDbLine
10
193.49000000000001
20
54.949999999999932
30
0
11
211.49000000000001
21
72.949999999999932
31
0
0
LINE
5
436
100
AcDbEntity
8
0
100
AcDbLine
10
195.5
20
56.959999999999951
30
0
11
209.48000000000002
21
70.939999999999955
31
0
0
LINE
5
437
100
AcDbEntity
8
0
100
AcDbLine
10
193.49000000000001
20
54.949999999999932
30
0
11
193.49000000000001
21
72.949999999999932
31
0
0
LINE
5
438
100
AcDbEntity
8
0
100
AcDbLine
10
209.48000000000002
20
56.959999999999965
30
0
11
195.5
21
56.959999999999951
31
0
0
LINE
5
439
100
AcDbEntity
8
0
100
AcDbLine
10
211.49000000000001
20
54.949999999999946
30
0
11
193.49000000000001
21
54.949999999999932
31
0
0
LWPOLYLINE
5
440
100
AcDbEntity
8
0
100
AcDbPolyline
90
4
70
1
43
0.0
10
227.5
20
70.939999999999984
10
241.47999999999999
20
70.939999999999984
10
241.47999999999999
20
56.959999999999994
10
227.5
20
56.959999999999987
0
LINE
5
441
100
AcDbEntity
8
0
100
AcDbLine
10
227.5
20
70.939999999999984
30
0
11
241.47999999999999
21
56.959999999999994
31
0
0
LINE
5
442
100
AcDbEntity
8
0
100
AcDbLine
10
227.5
20
56.959999999999987
30
0
11
241.47999999999999
21
70.939999999999984
31
0
0
LWPOLYLINE
5
443
100
AcDbEntity
8
0
100
AcDbPolyline
90
4
70
1
43
0.0
10
252.99000000000063
20
72.949999999999719
10
215.99000000000063
20
72.949999999999719
10
215.99000000000063
20
54.949999999999719
10
252.99000000000063
20
54.949999999999719
0
LINE
5
444
100
AcDbEntity
8
0
100
AcDbLine
10
252.99000000000063
20
72.949999999999719
30
0
11
215.99000000000063
21
54.949999999999719
31
0
0
LINE
5
445
100
AcDbEntity
8
0
100
AcDbLine
10
215.99000000000063
20
72.949999999999719
30
0
11
252.99000000000063
21
54.949999999999719
31
0
0
LWPOLYLINE
5
446
100
AcDbEntity
8
0
100
AcDbPolyline
90
4
70
1
43
0.0
10
-32.500000000000007
20
89.939999999999941
10
-18.520000000000003
20
89.939999999999969
10
-18.520000000000003
20
75.959999999999951
10
-32.500000000000007
20
75.959999999999965
0
LINE
5
447
100
AcDbEntity
8
0
100
AcDbLine
10
-32.500000000000007
20
89.939999999999941
30
0
11
-18.520000000000003
21
75.959999999999951
31
0
0
LINE
5
448
100
AcDbEntity
8
0
100
AcDbLine
10
-32.500000000000007
20
75.959999999999965
30
0
11
-18.520000000000003
21
89.939999999999969
31
0
0
LWPOLYLINE
5
449
100
AcDbEntity
8
0
100
AcDbPolyline
90
4
70
1
43
0.0
10
-16.510000000000005
20
73.94999999999996
10
-34.509999999999998
20
73.94999999999996
10
-34.509999999999998
20
91.949999999999946
10
-16.510000000000005
20
91.949999999999946
0
LINE
5
450
100
AcDbEntity
8
0
100
AcDbLine
10
-16.510000000000005
20
73.94999999999996
30
0
11
-34.509999999999998
21
91.949999999999946
31
0
0
LINE
5
451
100
AcDbEntity
8
0
100
AcDbLine
10
-34.509999999999998
20
73.94999999999996
30
0
11
-16.510000000000005
21
91.949999999999946
31
0
0
LWPOLYLINE
5
452
100
AcDbEntity
8
0
100
AcDbPolyline
90
4
70
1
43
0.0
10
15.990000000000899
20
73.949999999999875
10
-2.0099999999991085
20
91.949999999999875
10
15.99000000000089
20
91.949999999999861
10
-2.0099999999991058
20
73.949999999999875
0
LWPOLYLINE
5
453
100
AcDbEntity
8
0
100
AcDbPolyline
90
3
70
1
43
0.0
10
8.4156639990062843e-13
20
75.959999999999084
10
8.4195633741219898e-13
20
89.939999999999088
10
13.980000000000841
20
89.939999999999131
0
LINE
5
454
100
AcDbEntity
8
0
100
AcDbLine
10
8.4195633741219898e-13
20
89.939999999999088
30
0
11
13.980000000000839
21
75.95999999999907
31
0
0
LINE
5
455
100
AcDbEntity
8
0
100
AcDbLine
10
13.980000000000841
20
89.939999999999131
30
0
11
13.980000000000839
21
75.95999999999907
31
0
0
LINE
5
456
100
AcDbEntity
8
0
100
AcDbLine
10
-2.0099999999991063
20
73.949999999999875
30
0
11
-2.0099999999991085
21
91.949999999999875
31
0
0
LINE
5
457
100
AcDbEntity
8
0
100
AcDbLine
10
15.99000000000089
20
91.949999999999861
30
0
11
15.990000000000899
21
73.949999999999875
31
0
0
LINE
5
458
100
AcDbEntity
8
0
100
AcDbLine
10
13.980000000000839
20
75.95999999999907
30
0
11
8.4156639990062843e-13
21
75.959999999999084
31
0
0
LWPOLYLINE
5
459
100
AcDbEntity
8
0
100
AcDbPolyline
90
3
70
1
43
0.0
10
19.000000000000846
20
89.939999999999088
10
32.980000000000842
20
75.95999999999907
10
32.980000000000842
20
89.939999999999131
0
LINE
5
460
100
AcDbEntity
8
0
100
AcDbLine
10
32.980000000000842
20
75.95999999999907
30
0
11
19.000000000000846
21
75.959999999999084
31
0
0
LINE
5
461
100
AcDbEntity
8
0
100
AcDbLine
10
19.000000000000846
20
75.959999999999084
30
0
11
19.000000000000846
21
89.939999999999088
31
0
0
LWPOLYLINE
5
462
100
AcDbEntity
8
0
100
AcDbPolyline
90
3
70
1
43
0.0
10
34.99000000000089
20
91.949999999999861
10
34.990000000000897
20
73.949999999999875
10
16.99000000000089
20
91.949999999999875
0
LINE
5
463
100
AcDbEntity
8
0
100
AcDbLine
10
34.990000000000897
20
73.949999999999875
30
0
11
16.990000000000897
21
73.949999999999875
31
0
0
LINE
5
464
100
AcDbEntity
8
0
100
AcDbLine
10
16.990000000000897
20
73.949999999999875
30
0
11
34.99000000000089
21
91.949999999999861
31
0
0
LINE
5
465
100
AcDbEntity
8
0
100
AcDbLine
10
19.000000000000846
20
75.959999999999084
30
0
11
32.980000000000842
21
89.939999999999131
31
0
0
LINE
5
466
100
AcDbEntity
8
0
100
AcDbLine
10
16.990000000000897
20
73.949999999999875
30
0
11
16.99000000000089
21
91.949999999999875
31
0
0
LWPOLYLINE
5
467
100
AcDbEntity
8
0
100
AcDbPolyline
90
3
70
1
43
0.0
10
38.000000000000838
20
89.939999999999088
10
51.980000000000842
20
75.95999999999907
10
51.98000000000085
20
89.939999999999131
0
LINE
5
468
100
AcDbEntity
8
0
100
AcDbLine
10
51.980000000000842
20
75.95999999999907
30
0
11
38.000000000000838
21
75.959999999999084
31
0
0
LINE
5
469
100
AcDbEntity
8
0
100
AcDbLine
10
38.000000000000838
20
75.959999999999084
30
0
11
38.000000000000838
21
89.939999999999088
31
0
0
LWPOLYLINE
5
470
100
AcDbEntity
8
0
100
AcDbPolyline
90
3
70
1
43
0.0
10
53.990000000000897
20
91.949999999999861
10
53.990000000000904
20
73.949999999999875
10
35.990000000000897
20
91.949999999999875
0
LINE
5
471
100
AcDbEntity
8
0
100
AcDbLine
10
53.990000000000904
20
73.949999999999875
30
0
11
35.990000000000897
21
73.949999999999875
31
0
0
LINE
5
472
100
AcDbEntity
8
0
100
AcDbLine
10
35.990000000000897
20
73.949999999999875
30
0
11
53.990000000000897
21
91.949999999999861
31
0
0
LINE
5
473
100
AcDbEntity
8
0
100
AcDbLine
10
38.000000000000838
20
75.959999999999084
30
0
11
51.98000000000085
21
89.939999999999131
31
0
0
LINE
5
474
100
AcDbEntity
8
0
100
AcDbLine
10
35.990000000000897
20
73.949999999999875
30
0
11
35.990000000000897
21
91.949999999999875
31
0
0
LWPOLYLINE
5
475
100
AcDbEntity
8
0
100
AcDbPolyline
90
3
70
1
43
0.0
10
57.000000000000846
20
89.939999999999088
10
70.980000000000842
20
75.95999999999907
10
70.980000000000842
20
89.939999999999131
0
LINE
5
476
100
AcDbEntity
8
0
100
AcDbLine
10
70.980000000000842
20
75.95999999999907
30
0
11
57.000000000000846
21
75.959999999999084
31
0
0
LINE
5
477
100
AcDbEntity
8
0
100
AcDbLine
10
57.000000000000846
20
75.959999999999084
30
0
11
57.000000000000846
21
89.939999999999088
31
0
0
LWPOLYLINE
5
478
100
AcDbEntity
8
0
100
AcDbPolyline
90
3
70
1
43
0.0
10
72.990000000000904
20
91.949999999999861
10
72.990000000000904
20
73.949999999999875
10
54.99000000000089
20
91.949999999999875
0
LINE
5
479
100
AcDbEntity
8
0
100
AcDbLine
10
72.990000000000904
20
73.949999999999875
30
0
11
54.990000000000904
21
73.949999999999875
31
0
0
LINE
5
480
100
AcDbEntity
8
0
100
AcDbLine
10
54.990000000000904
20
73.949999999999875
30
0
11
72.990000000000904
21
91.949999999999861
31
0
0
LINE
5
481
100
AcDbEntity
8
0
100
AcDbLine
10
57.000000000000846
20
75.959999999999084
30
0
11
70.980000000000842
21
89.939999999999131
31
0
0
LINE
5
482
100
AcDbEntity
8
0
100
AcDbLine
10
54.990000000000904
20
73.949999999999875
30
0
11
54.99000000000089
21
91.949999999999875
31
0
0
LWPOLYLINE
5
483
100
AcDbEntity
8
0
100
AcDbPolyline
90
4
70
1
43
0.0
10
109.00000000000084
20
89.939999999999088
10
122.98000000000084
20
75.95999999999907
10
122.98000000000084
20
89.939999999999131
10
109.00000000000084
20
75.959999999999098
0
LWPOLYLINE
5
484
100
AcDbEntity
8
0
100
AcDbPolyline
90
3
70
1
43
0.0
10
124.99000000000092
20
73.949999999999875
10
106.9900000000009
20
73.949999999999889
10
106.9900000000009
20
91.949999999999875
0
LINE
5
485
100
AcDbEntity
8
0
100
AcDbLine
10
124.99000000000089
20
91.949999999999861
30
0
11
124.99000000000092
21
73.949999999999875
31
0
0
LWPOLYLINE
5
486
100
AcDbEntity
8
0
100
AcDbPolyline
90
3
70
1
43
0.0
10
143.99000000000089
20
73.949999999999875
10
125.99000000000089
20
73.949999999999875
10
125.99000000000089
20
91.949999999999875
0
LWPOLYLINE
5
487
100
AcDbEntity
8
0
100
AcDbPolyline
90
3
70
1
43
0.0
10
147.00000000000085
20
75.959999999999098
10
160.98000000000084
20
89.939999999999131
10
147.00000000000085
20
89.939999999999088
0
LWPOLYLINE
5
488
100
AcDbEntity
8
0
100
AcDbPolyline
90
4
70
1
43
0.0
10
87.990000000000904
20
91.949999999999875
10
105.99000000000089
20
91.949999999999861
10
87.990000000000904
20
73.949999999999875
10
105.9900000000009
20
73.949999999999875
0
LWPOLYLINE
5
489
100
AcDbEntity
8
0
100
AcDbPolyline
90
4
70
1
43
0.0
10
128.00000000000085
20
89.939999999999088
10
141.98000000000084
20
75.95999999999907
10
128.00000000000085
20
75.959999999999098
10
141.98000000000087
20
89.939999999999131
0
LWPOLYLINE
5
490
100
AcDbEntity
8
0
100
AcDbPolyline
90
3
70
1
43
0.0
10
162.99000000000092
20
73.949999999999875
10
144.99000000000092
20
73.949999999999875
10
162.99000000000089
20
91.949999999999861
0
LWPOLYLINE
5
491
100
AcDbEntity
8
0
100
AcDbPolyline
90
4
70
1
43
0.0
10
90.000000000000853
20
75.959999999999098
10
103.98000000000084
20
89.939999999999131
10
103.98000000000084
20
75.95999999999907
10
90.000000000000853
20
89.939999999999088
0
LINE
5
492
100
AcDbEntity
8
0
100
AcDbLine
10
125.99000000000089
20
91.949999999999875
30
0
11
143.99000000000089
21
91.949999999999861
31
0
0
LINE
5
493
100
AcDbEntity
8
0
100
AcDbLine
10
125.99000000000089
20
73.949999999999875
30
0
11
143.99000000000089
21
91.949999999999861
31
0
0
LINE
5
494
100
AcDbEntity
8
0
100
AcDbLine
10
106.9900000000009
20
73.949999999999889
30
0
11
124.99000000000089
21
91.949999999999861
31
0
0
LINE
5
495
100
AcDbEntity
8
0
100
AcDbLine
10
122.98000000000084
20
75.95999999999907
30
0
11
109.00000000000084
21
75.959999999999098
31
0
0
LINE
5
496
100
AcDbEntity
8
0
100
AcDbLine
10
160.98000000000084
20
89.939999999999131
30
0
11
160.98000000000084
21
75.95999999999907
31
0
0
LINE
5
497
100
AcDbEntity
8
0
100
AcDbLine
10
141.98000000000087
20
89.939999999999131
30
0
11
141.98000000000084
21
75.95999999999907
31
0
0
LINE
5
498
100
AcDbEntity
8
0
100
AcDbLine
10
128.00000000000085
20
75.959999999999098
30
0
11
128.00000000000085
21
89.939999999999088
31
0
0
LINE
5
499
100
AcDbEntity
8
0
100
AcDbLine
10
90.000000000000853
20
89.939999999999088
30
0
11
103.98000000000084
21
89.939999999999131
31
0
0
LINE
5
500
100
AcDbEntity
8
0
100
AcDbLine
10
162.99000000000092
20
73.949999999999875
30
0
11
144.99000000000089
21
91.949999999999875
31
0
0
LINE
5
501
100
AcDbEntity
8
0
100
AcDbLine
10
143.99000000000089
20
91.949999999999861
30
0
11
143.99000000000089
21
73.949999999999875
31
0
0
LINE
5
502
100
AcDbEntity
8
0
100
AcDbLine
10
87.990000000000904
20
73.949999999999875
30
0
11
87.990000000000904
21
91.949999999999875
31
0
0
LINE
5
503
100
AcDbEntity
8
0
100
AcDbLine
10
144.99000000000092
20
73.949999999999875
30
0
11
144.99000000000089
21
91.949999999999875
31
0
0
LINE
5
504
100
AcDbEntity
8
0
100
AcDbLine
10
106.9900000000009
20
91.949999999999875
30
0
11
124.99000000000089
21
91.949999999999861
31
0
0
LINE
5
505
100
AcDbEntity
8
0
100
AcDbLine
10
144.99000000000089
20
91.949999999999875
30
0
11
162.99000000000089
21
91.949999999999861
31
0
0
LINE
5
506
100
AcDbEntity
8
0
100
AcDbLine
10
103.98000000000084
20
75.95999999999907
30
0
11
90.000000000000853
21
75.959999999999098
31
0
0
LINE
5
507
100
AcDbEntity
8
0
100
AcDbLine
10
147.00000000000085
20
89.939999999999088
30
0
11
160.98000000000084
21
75.95999999999907
31
0
0
LINE
5
508
100
AcDbEntity
8
0
100
AcDbLine
10
160.98000000000084
20
75.95999999999907
30
0
11
147.00000000000085
21
75.959999999999098
31
0
0
LINE
5
509
100
AcDbEntity
8
0
100
AcDbLine
10
105.99000000000089
20
91.949999999999861
30
0
11
105.9900000000009
21
73.949999999999875
31
0
0
LINE
5
510
100
AcDbEntity
8
0
100
AcDbLine
10
109.00000000000084
20
89.939999999999088
30
0
11
122.98000000000084
21
89.939999999999131
31
0
0
LWPOLYLINE
5
511
100
AcDbEntity
8
0
100
AcDbPolyline
90
4
70
1
43
0.0
10
199.00000000000085
20
89.939999999999088
10
212.98000000000084
20
75.95999999999907
10
212.98000000000084
20
89.939999999999131
10
199.00000000000085
20
75.959999999999098
0
LWPOLYLINE
5
512
100
AcDbEntity
8
0
100
AcDbPolyline
90
3
70
1
43
0.0
10
214.99000000000092
20
73.949999999999875
10
196.99000000000092
20
73.949999999999889
10
196.99000000000092
20
91.949999999999875
0
LINE
5
513
100
AcDbEntity
8
0
100
AcDbLine
10
214.99000000000092
20
91.949999999999861
30
0
11
214.99000000000092
21
73.949999999999875
31
0
0
LWPOLYLINE
5
514
100
AcDbEntity
8
0
100
AcDbPolyline
90
3
70
1
43
0.0
10
233.99000000000089
20
73.949999999999875
10
215.99000000000089
20
73.949999999999875
10
215.99000000000089
20
91.949999999999875
0
LWPOLYLINE
5
515
100
AcDbEntity
8
0
100
AcDbPolyline
90
3
70
1
43
0.0
10
237.00000000000085
20
75.959999999999098
10
250.98000000000084
20
89.939999999999131
10
237.00000000000085
20
89.939999999999088
0
LWPOLYLINE
5
516
100
AcDbEntity
8
0
100
AcDbPolyline
90
4
70
1
43
0.0
10
177.99000000000089
20
91.949999999999875
10
195.99000000000089
20
91.949999999999861
10
177.99000000000089
20
73.949999999999875
10
195.99000000000089
20
73.949999999999875
0
LWPOLYLINE
5
517
100
AcDbEntity
8
0
100
AcDbPolyline
90
4
70
1
43
0.0
10
218.00000000000085
20
89.939999999999088
10
231.98000000000087
20
75.95999999999907
10
218.00000000000085
20
75.959999999999098
10
231.98000000000087
20
89.939999999999131
0
LWPOLYLINE
5
518
100
AcDbEntity
8
0
100
AcDbPolyline
90
3
70
1
43
0.0
10
252.99000000000092
20
73.949999999999875
10
234.99000000000092
20
73.949999999999875
10
252.99000000000089
20
91.949999999999861
0
LWPOLYLINE
5
519
100
AcDbEntity
8
0
100
AcDbPolyline
90
4
70
1
43
0.0
10
180.00000000000085
20
75.959999999999098
10
193.98000000000084
20
89.939999999999131
10
193.98000000000084
20
75.95999999999907
10
180.00000000000085
20
89.939999999999088
0
LINE
5
520
100
AcDbEntity
8
0
100
AcDbLine
10
215.99000000000089
20
91.949999999999875
30
0
11
233.99000000000089
21
91.949999999999861
31
0
0
LINE
5
521
100
AcDbEntity
8
0
100
AcDbLine
10
215.99000000000089
20
73.949999999999875
30
0
11
233.99000000000089
21
91.949999999999861
31
0
0
LINE
5
522
100
AcDbEntity
8
0
100
AcDbLine
10
196.99000000000092
20
73.949999999999889
30
0
11
214.99000000000092
21
91.949999999999861
31
0
0
LINE
5
523
100
AcDbEntity
8
0
100
AcDbLine
10
212.98000000000084
20
75.95999999999907
30
0
11
199.00000000000085
21
75.959999999999098
31
0
0
LINE
5
524
100
AcDbEntity
8
0
100
AcDbLine
10
250.98000000000084
20
89.939999999999131
30
0
11
250.98000000000084
21
75.95999999999907
31
0
0
LINE
5
525
100
AcDbEntity
8
0
100
AcDbLine
10
231.98000000000087
20
89.939999999999131
30
0
11
231.98000000000087
21
75.95999999999907
31
0
0
LINE
5
526
100
AcDbEntity
8
0
100
AcDbLine
10
218.00000000000085
20
75.959999999999098
30
0
11
218.00000000000085
21
89.939999999999088
31
0
0
LINE
5
527
100
AcDbEntity
8
0
100
AcDbLine
10
180.00000000000085
20
89.939999999999088
30
0
11
193.98000000000084
21
89.939999999999131
31
0
0
LINE
5
528
100
AcDbEntity
8
0
100
AcDbLine
10
252.99000000000092
20
73.949999999999875
30
0
11
234.99000000000092
21
91.949999999999875
31
0
0
LINE
5
529
100
AcDbEntity
8
0
100
AcDbLine
10
233.99000000000089
20
91.949999999999861
30
0
11
233.99000000000089
21
73.949999999999875
31
0
0
LINE
5
530
100
AcDbEntity
8
0
100
AcDbLine
10
177.99000000000089
20
73.949999999999875
30
0
11
177.99000000000089
21
91.949999999999875
31
0
0
LINE
5
531
100
AcDbEntity
8
0
100
AcDbLine
10
234.99000000000092
20
73.949999999999875
30
0
11
234.99000000000092
21
91.949999999999875
31
0
0
LINE
5
532
100
AcDbEntity
8
0
100
AcDbLine
10
196.99000000000092
20
91.949999999999875
30
0
11
214.99000000000092
21
91.949999999999861
31
0
0
LINE
5
533
100
AcDbEntity
8
0
100
AcDbLine
10
234.99000000000092
20
91.949999999999875
30
0
11
252.99000000000089
21
91.949999999999861
31
0
0
LINE
5
534
100
AcDbEntity
8
0
100
AcDbLine
10
193.98000000000084
20
75.95999999999907
30
0
11
180.00000000000085
21
75.959999999999098
31
0
0
LINE
5
535
100
AcDbEntity
8
0
100
AcDbLine
10
237.00000000000085
20
89.939999999999088
30
0
11
250.98000000000084
21
75.95999999999907
31
0
0
LINE
5
536
100
AcDbEntity
8
0
100
AcDbLine
10
250.98000000000084
20
75.95999999999907
30
0
11
237.00000000000085
21
75.959999999999098
31
0
0
LINE
5
537
100
AcDbEntity
8
0
100
AcDbLine
10
195.99000000000089
20
91.949999999999861
30
0
11
195.99000000000089
21
73.949999999999875
31
0
0
LINE
5
538
100
AcDbEntity
8
0
100
AcDbLine
10
199.00000000000085
20
89.939999999999088
30
0
11
212.98000000000084
21
89.939999999999131
31
0
0
LINE
5
539
100
AcDbEntity
8
0
100
AcDbLine
10
281.74247941225156
20
89.979999999985068
30
0
11
267.76247941225154
21
89.979999999984358
31
0
0
LWPOLYLINE
5
540
100
AcDbEntity
8
0
100
AcDbPolyline
90
4
70
1
43
0.0
10
303.75247941225149
20
91.989999999985045
10
321.75247941225155
20
91.989999999984903
10
321.75247941225155
20
73.98999999998496
10
303.75247941225149
20
73.989999999985059
0
LWPOLYLINE
5
541
100
AcDbEntity
8
0
100
AcDbPolyline
90
4
70
1
43
0.0
10
319.7424794122515
20
89.979999999985068
10
305.76247941225148
20
89.979999999984358
10
319.74247941225156
20
75.999999999985718
10
305.76247941225148
20
75.999999999984368
0
LWPOLYLINE
5
542
100
AcDbEntity
8
0
100
AcDbPolyline
90
3
70
1
43
0.0
10
265.75247941225149
20
91.989999999985088
10
283.75247941225149
20
91.989999999984903
10
265.75247941225149
20
73.989999999985102
0
LWPOLYLINE
5
543
100
AcDbEntity
8
0
100
AcDbPolyline
90
4
70
1
43
0.0
10
300.74247941225156
20
89.979999999985068
10
286.76247941225148
20
89.979999999984358
10
286.76247941225148
20
75.999999999984368
10
300.74247941225156
20
75.999999999985718
0
LINE
5
544
100
AcDbEntity
8
0
100
AcDbLine
10
302.75247941225143
20
73.98999999998496
30
0
11
284.75247941225143
21
91.989999999985045
31
0
0
LWPOLYLINE
5
545
100
AcDbEntity
8
0
100
AcDbPolyline
90
3
70
1
43
0.0
10
267.76247941225154
20
75.999999999984368
10
281.74247941225156
20
75.999999999985718
10
281.74247941225156
20
89.979999999985068
0
LWPOLYLINE
5
546
100
AcDbEntity
8
0
100
AcDbPolyline
90
3
70
1
43
0.0
10
284.75247941225143
20
73.989999999985059
10
284.75247941225143
20
91.989999999985045
10
302.75247941225149
20
91.989999999984903
0
LINE
5
547
100
AcDbEntity
8
0
100
AcDbLine
10
267.76247941225154
20
89.979999999984358
30
0
11
267.76247941225154
21
75.999999999984368
31
0
0
LINE
5
548
100
AcDbEntity
8
0
100
AcDbLine
10
283.75247941225149
20
91.989999999984903
30
0
11
283.75247941225149
21
73.98999999998496
31
0
0
LINE
5
549
100
AcDbEntity
8
0
100
AcDbLine
10
321.75247941225155
20
73.98999999998496
30
0
11
303.75247941225149
21
91.989999999985045
31
0
0
LINE
5
550
100
AcDbEntity
8
0
100
AcDbLine
10
283.75247941225149
20
73.98999999998496
30
0
11
265.75247941225149
21
91.989999999985088
31
0
0
LINE
5
551
100
AcDbEntity
8
0
100
AcDbLine
10
302.75247941225143
20
73.98999999998496
30
0
11
284.75247941225143
21
73.989999999985059
31
0
0
LINE
5
552
100
AcDbEntity
8
0
100
AcDbLine
10
305.76247941225148
20
89.979999999984358
30
0
11
305.76247941225148
21
75.999999999984368
31
0
0
LINE
5
553
100
AcDbEntity
8
0
100
AcDbLine
10
286.76247941225148
20
89.979999999984358
30
0
11
300.74247941225156
21
75.999999999985718
31
0
0
LINE
5
554
100
AcDbEntity
8
0
100
AcDbLine
10
267.76247941225154
20
89.979999999984358
30
0
11
281.74247941225156
21
75.999999999985718
31
0
0
LINE
5
555
100
AcDbEntity
8
0
100
AcDbLine
10
283.75247941225149
20
73.98999999998496
30
0
11
265.75247941225149
21
73.989999999985102
31
0
0
LINE
5
556
100
AcDbEntity
8
0
100
AcDbLine
10
286.76247941225148
20
75.999999999984368
30
0
11
300.74247941225156
21
89.979999999985068
31
0
0
LINE
5
557
100
AcDbEntity
8
0
100
AcDbLine
10
319.74247941225156
20
75.999999999985718
30
0
11
319.7424794122515
21
89.979999999985068
31
0
0
LINE
5
558
100
AcDbEntity
8
0
100
AcDbLine
10
302.75247941225149
20
91.989999999984903
30
0
11
302.75247941225143
21
73.98999999998496
31
0
0
LINE
5
559
100
AcDbEntity
8
0
100
AcDbLine
10
303.75247941225149
20
73.989999999985059
30
0
11
321.75247941225155
21
91.989999999984903
31
0
0
LINE
5
560
100
AcDbEntity
8
0
100
AcDbLine
10
241.74000000000001
20
17.289999999743053
30
0
11
241.74000000000001
21
53.989999999743048
31
0
0
LINE
5
561
100
AcDbEntity
8
0
100
AcDbLine
10
241.74000000000001
20
17.289999999743053
30
0
11
241.74000000000004
21
18.403401551181027
31
0
0
LWPOLYLINE
5
562
100
AcDbEntity
8
0
100
AcDbPolyline
90
4
70
1
43
0.0
10
248.73000000000005
20
28.649999999743056
10
234.75000000000006
20
28.649999999743056
10
234.75000000000006
20
42.629999999743056
10
248.73000000000005
20
42.629999999743056
0
LINE
5
563
100
AcDbEntity
8
0
100
AcDbLine
10
248.73000000000005
20
28.649999999743056
30
0
11
234.75000000000006
21
42.629999999743056
31
0
0
LINE
5
564
100
AcDbEntity
8
0
100
AcDbLine
10
234.75000000000006
20
28.649999999743056
30
0
11
248.73000000000005
21
42.629999999743056
31
0
0
LINE
5
565
100
AcDbEntity
8
0
100
AcDbLine
10
241.74000000000001
20
17.289999999743053
30
0
11
241.74000000000004
21
23.889999999743058
31
0
0
LINE
5
566
100
AcDbEntity
8
0
100
AcDbLine
10
241.74000000000001
20
53.989999999743048
30
0
11
241.74000000000001
21
47.389999999743054
31
0
0
LINE
5
567
100
AcDbEntity
8
0
100
AcDbLine
10
265.75247941225155
20
-12.010000000011011
30
0
11
272.35247941225157
21
-12.01000000001101
31
0
0
LINE
5
568
100
AcDbEntity
8
0
100
AcDbLine
10
302.75247941225155
20
-12.01000000001496
30
0
11
296.15247941225158
21
-12.010000000014962
31
0
0
LINE
5
569
100
AcDbEntity
8
0
100
AcDbLine
10
331.7524794122516
20
15.989999999984921
30
0
11
331.75247941225155
21
9.3899999999849211
31
0
0
LINE
5
570
100
AcDbEntity
8
0
100
AcDbLine
10
331.75247941225166
20
-21.010000000015076
30
0
11
331.75247941225166
21
-14.410000000015078
31
0
0
LINE
5
571
100
AcDbEntity
8
0
100
AcDbLine
10
331.75247941225166
20
16.989999999984896
30
0
11
331.75247941225166
21
23.589999999984897
31
0
0
LINE
5
572
100
AcDbEntity
8
0
100
AcDbLine
10
331.75247941225166
20
53.989999999984889
30
0
11
331.75247941225166
21
47.389999999984894
31
0
0
LINE
5
573
100
AcDbEntity
8
0
100
AcDbLine
10
62.184999999999995
20
-12.010000000000026
30
0
11
71.185000000000002
21
-12.010000000000042
31
0
0
LINE
5
574
100
AcDbEntity
8
0
100
AcDbLine
10
179.88500000000002
20
-12.010000000000005
30
0
11
170.88500000000005
21
-12.010000000000007
31
0
0
LINE
5
575
100
AcDbEntity
8
0
100
AcDbLine
10
211.38999999999999
20
6.9900000000000571
30
0
11
220.38999999999999
21
6.9900000000000926
31
0
0
LINE
5
576
100
AcDbEntity
8
0
100
AcDbLine
10
252.98999999999992
20
6.9900000000000038
30
0
11
243.98999999999995
21
6.9900000000000215
31
0
0
LINE
5
577
100
AcDbEntity
8
0
100
AcDbLine
10
215.99000000000063
20
63.949999999999719
30
0
11
222.59000000000066
21
63.949999999999719
31
0
0
LINE
5
578
100
AcDbEntity
8
0
100
AcDbLine
10
252.99000000000063
20
63.949999999999719
30
0
11
246.39000000000064
21
63.949999999999719
31
0
0
LWPOLYLINE
5
579
100
AcDbEntity
8
0
100
AcDbPolyline
90
4
70
1
43
0.0
10
7.2299999999999986
20
-18.999999999999993
10
-6.7500000000000071
20
-5.0199999999999925
10
7.2299999999999915
20
-5.0199999999999934
10
-6.7500000000000071
20
-18.999999999999993
0
LWPOLYLINE
5
580
100
AcDbEntity
8
0
100
AcDbPolyline
90
3
70
1
43
0.0
10
-11.010000000000005
20
-3.0099999999999989
10
11.489999999999993
20
-21.009999999999991
10
-11.010000000000005
20
-21.009999999999991
0
LINE
5
581
100
AcDbEntity
8
0
100
AcDbLine
10
-11.010000000000005
20
-3.0099999999999989
30
0
11
11.489999999999993
21
-3.0099999999999989
31
0
0
LINE
5
582
100
AcDbEntity
8
0
100
AcDbLine
10
11.489999999999993
20
-3.0099999999999989
30
0
11
11.489999999999993
21
-21.009999999999991
31
0
0
LINE
5
583
100
AcDbEntity
8
0
100
AcDbLine
10
7.2299999999999915
20
-5.0199999999999925
30
0
11
7.2299999999999986
21
-18.999999999999993
31
0
0
LINE
5
584
100
AcDbEntity
8
0
100
AcDbLine
10
-6.7500000000000071
20
-18.999999999999993
30
0
11
-6.7500000000000071
21
-5.0199999999999925
31
0
0
LINE
5
585
100
AcDbEntity
8
0
100
AcDbLine
10
-11.010000000000005
20
-21.009999999999991
30
0
11
11.489999999999993
21
-3.0099999999999989
31
0
0
LWPOLYLINE
5
586
100
AcDbEntity
8
0
100
AcDbPolyline
90
4
70
1
43
0.0
10
30.73
20
-18.999999999999993
10
16.749999999999993
20
-5.0199999999999925
10
30.729999999999997
20
-5.0199999999999934
10
16.749999999999993
20
-18.999999999999993
0
LWPOLYLINE
5
587
100
AcDbEntity
8
0
100
AcDbPolyline
90
3
70
1
43
0.0
10
12.489999999999997
20
-3.0099999999999989
10
34.989999999999995
20
-21.009999999999991
10
12.489999999999997
20
-21.009999999999991
0
LINE
5
588
100
AcDbEntity
8
0
100
AcDbLine
10
12.489999999999997
20
-3.0099999999999989
30
0
11
34.989999999999995
21
-3.0099999999999989
31
0
0
LINE
5
589
100
AcDbEntity
8
0
100
AcDbLine
10
34.989999999999995
20
-3.0099999999999989
30
0
11
34.989999999999995
21
-21.009999999999991
31
0
0
LINE
5
590
100
AcDbEntity
8
0
100
AcDbLine
10
30.729999999999997
20
-5.0199999999999925
30
0
11
30.73
21
-18.999999999999993
31
0
0
LINE
5
591
100
AcDbEntity
8
0
100
AcDbLine
10
16.749999999999993
20
-18.999999999999993
30
0
11
16.749999999999993
21
-5.0199999999999925
31
0
0
LINE
5
592
100
AcDbEntity
8
0
100
AcDbLine
10
12.489999999999997
20
-21.009999999999991
30
0
11
34.989999999999995
21
-3.0099999999999989
31
0
0
LWPOLYLINE
5
593
100
AcDbEntity
8
0
100
AcDbPolyline
90
4
70
1
43
0.0
10
54.230000000000004
20
-18.999999999999993
10
40.25
20
-5.0199999999999925
10
54.230000000000004
20
-5.0199999999999934
10
40.25
20
-18.999999999999993
0
LWPOLYLINE
5
594
100
AcDbEntity
8
0
100
AcDbPolyline
90
3
70
1
43
0.0
10
35.990000000000002
20
-3.0099999999999989
10
58.490000000000002
20
-21.009999999999991
10
35.990000000000002
20
-21.009999999999991
0
LINE
5
595
100
AcDbEntity
8
0
100
AcDbLine
10
35.990000000000002
20
-3.0099999999999989
30
0
11
58.490000000000002
21
-3.0099999999999989
31
0
0
LINE
5
596
100
AcDbEntity
8
0
100
AcDbLine
10
58.490000000000002
20
-3.0099999999999989
30
0
11
58.490000000000002
21
-21.009999999999991
31
0
0
LINE
5
597
100
AcDbEntity
8
0
100
AcDbLine
10
54.230000000000004
20
-5.0199999999999925
30
0
11
54.230000000000004
21
-18.999999999999993
31
0
0
LINE
5
598
100
AcDbEntity
8
0
100
AcDbLine
10
40.25
20
-18.999999999999993
30
0
11
40.25
21
-5.0199999999999925
31
0
0
LINE
5
599
100
AcDbEntity
8
0
100
AcDbLine
10
35.990000000000002
20
-21.009999999999991
30
0
11
58.490000000000002
21
-3.0099999999999989
31
0
0
LWPOLYLINE
5
600
100
AcDbEntity
8
0
100
AcDbPolyline
90
11
70
1
43
0.0
10
-39.510000000000005
20
96.949999999999136
10
257.9899999999999
20
96.949999999999946
10
260.75247941225126
20
96.950000000000287
10
260.75247941225149
20
-26.010000000015118
10
259.37123970612566
20
-26.010000000015118
10
259.37123970612566
20
96.949999999999946
10
259.37123970612566
20
-26.009999999999618
10
257.99000000000024
20
-26.009999999999618
10
257.9899999999999
20
96.949999999999946
10
257.99000000000007
20
-26.009999999999991
10
-39.510000000000005
20
-26.009999999999973
0
LWPOLYLINE
5
601
100
AcDbEntity
8
0
100
AcDbPolyline
90
4
70
1
43
0.0
10
74.684999999999974
20
-21.760000000000037
10
67.684999999999988
20
-21.760000000000041
10
67.684999999999974
20
-2.2600000000000384
10
74.684999999999974
20
-2.2600000000000384
0
LINE
5
602
100
AcDbEntity
8
0
100
AcDbLine
10
74.684999999999974
20
-21.760000000000037
30
0
11
67.684999999999974
21
-2.2600000000000384
31
0
0
LINE
5
603
100
AcDbEntity
8
0
100
AcDbLine
10
67.684999999999988
20
-21.760000000000041
30
0
11
74.684999999999974
21
-2.2600000000000384
31
0
0
LWPOLYLINE
5
604
100
AcDbEntity
8
0
100
AcDbPolyline
90
4
70
1
43
0.0
10
174.38500000000002
20
-22.009999999999952
10
167.38500000000002
20
-22.009999999999962
10
167.38500000000002
20
-2.0099999999999536
10
174.38500000000002
20
-2.0099999999999536
0
LINE
5
605
100
AcDbEntity
8
0
100
AcDbLine
10
174.38500000000002
20
-22.009999999999952
30
0
11
167.38500000000002
21
-2.0099999999999536
31
0
0
LINE
5
606
100
AcDbEntity
8
0
100
AcDbLine
10
167.38500000000002
20
-22.009999999999962
30
0
11
174.38500000000002
21
-2.0099999999999536
31
0
0
LINE
5
607
100
AcDbEntity
8
0
100
AcDbLine
10
74.685000000000002
20
-15.499999999999972
30
0
11
114.04499999999999
21
-15.500000000000021
31
0
0
LINE
5
608
100
AcDbEntity
8
0
100
AcDbLine
10
128.02499999999998
20
-15.500000000000028
30
0
11
167.38500000000002
21
-15.500000000000062
31
0
0
LINE
5
609
100
AcDbEntity
8
0
100
AcDbLine
10
128.02499999999998
20
-8.5200000000000937
30
0
11
167.38500000000002
21
-8.5200000000000919
31
0
0
LINE
5
610
100
AcDbEntity
8
0
100
AcDbLine
10
74.685000000000002
20
-8.5200000000000582
30
0
11
114.04499999999999
21
-8.5199999999999925
31
0
0
LWPOLYLINE
5
611
100
AcDbEntity
8
0
100
AcDbPolyline
90
4
70
1
43
0.0
10
223.88999999999996
20
-3.0099999999999074
10
216.88999999999999
20
-3.0099999999999074
10
216.88999999999999
20
16.990000000000091
10
223.88999999999996
20
16.990000000000091
0
LINE
5
612
100
AcDbEntity
8
0
100
AcDbLine
10
223.88999999999996
20
-3.0099999999999074
30
0
11
216.88999999999999
21
16.990000000000091
31
0
0
LINE
5
613
100
AcDbEntity
8
0
100
AcDbLine
10
216.88999999999999
20
-3.0099999999999074
30
0
11
223.88999999999996
21
16.990000000000091
31
0
0
LWPOLYLINE
5
614
100
AcDbEntity
8
0
100
AcDbPolyline
90
4
70
1
43
0.0
10
247.48999999999995
20
16.99000000000002
10
240.48999999999992
20
16.99000000000002
10
240.48999999999992
20
-3.0099999999999771
10
247.48999999999995
20
-3.0099999999999771
0
LINE
5
615
100
AcDbEntity
8
0
100
AcDbLine
10
247.48999999999995
20
16.99000000000002
30
0
11
240.48999999999992
21
-3.0099999999999771
31
0
0
LINE
5
616
100
AcDbEntity
8
0
100
AcDbLine
10
240.48999999999992
20
16.99000000000002
30
0
11
247.48999999999995
21
-3.0099999999999771
31
0
0
LINE
5
617
100
AcDbEntity
8
0
100
AcDbLine
10
223.8900000000001
20
3.4999999999999929
30
0
11
225.20000000000013
21
3.4999999999999964
31
0
0
LINE
5
618
100
AcDbEntity
8
0
100
AcDbLine
10
239.17999999999995
20
3.4999999999999791
30
0
11
240.49000000000001
21
3.5000000000000404
31
0
0
LINE
5
619
100
AcDbEntity
8
0
100
AcDbLine
10
223.8900000000001
20
10.480000000000128
30
0
11
225.20000000000013
21
10.480000000000121
31
0
0
LINE
5
620
100
AcDbEntity
8
0
100
AcDbLine
10
239.17999999999995
20
10.480000000000082
30
0
11
240.49000000000001
21
10.480000000000016
31
0
0
LWPOLYLINE
5
621
100
AcDbEntity
8
0
100
AcDbPolyline
90
4
70
1
43
0.0
10
251.74000000000001
20
43.889999999743061
10
231.74000000000001
20
43.889999999743061
10
231.74000000000001
20
50.889999999743054
10
251.74000000000001
20
50.889999999743054
0
LINE
5
622
100
AcDbEntity
8
0
100
AcDbLine
10
251.74000000000001
20
43.889999999743061
30
0
11
231.74000000000001
21
50.889999999743054
31
0
0
LINE
5
623
100
AcDbEntity
8
0
100
AcDbLine
10
231.74000000000001
20
43.889999999743061
30
0
11
251.74000000000001
21
50.889999999743054
31
0
0
LWPOLYLINE
5
624
100
AcDbEntity
8
0
100
AcDbPolyline
90
4
70
1
43
0.0
10
251.74000000000004
20
20.389999999743054
10
231.74000000000004
20
20.389999999743054
10
231.74000000000004
20
27.389999999743058
10
251.74000000000004
20
27.389999999743058
0
LINE
5
625
100
AcDbEntity
8
0
100
AcDbLine
10
251.74000000000004
20
20.389999999743054
30
0
11
231.74000000000004
21
27.389999999743058
31
0
0
LINE
5
626
100
AcDbEntity
8
0
100
AcDbLine
10
231.74000000000004
20
20.389999999743054
30
0
11
251.74000000000004
21
27.389999999743058
31
0
0
LINE
5
627
100
AcDbEntity
8
0
100
AcDbLine
10
238.25000000000003
20
43.889999999743068
30
0
11
238.25000000000003
21
42.629999999743077
31
0
0
LINE
5
628
100
AcDbEntity
8
0
100
AcDbLine
10
238.25000000000003
20
28.64999999974307
30
0
11
238.25000000000003
21
27.389999999743068
31
0
0
LINE
5
629
100
AcDbEntity
8
0
100
AcDbLine
10
245.22999999999996
20
43.889999999743068
30
0
11
245.22999999999996
21
42.629999999743077
31
0
0
LINE
5
630
100
AcDbEntity
8
0
100
AcDbLine
10
245.22999999999996
20
28.64999999974307
30
0
11
245.22999999999996
21
27.389999999743068
31
0
0
LWPOLYLINE
5
631
100
AcDbEntity
8
0
100
AcDbPolyline
90
4
70
1
43
0.0
10
226.09000000000066
20
53.949999999999719
10
219.09000000000063
20
53.949999999999719
10
219.09000000000063
20
73.949999999999719
10
226.09000000000066
20
73.949999999999719
0
LINE
5
632
100
AcDbEntity
8
0
100
AcDbLine
10
226.09000000000066
20
53.949999999999719
30
0
11
219.09000000000063
21
73.949999999999719
31
0
0
LINE
5
633
100
AcDbEntity
8
0
100
AcDbLine
10
219.09000000000063
20
53.949999999999719
30
0
11
226.09000000000066
21
73.949999999999719
31
0
0
LWPOLYLINE
5
634
100
AcDbEntity
8
0
100
AcDbPolyline
90
4
70
1
43
0.0
10
249.89000000000061
20
53.949999999999719
10
242.89000000000067
20
53.949999999999719
10
242.89000000000067
20
73.949999999999719
10
249.89000000000061
20
73.949999999999719
0
LINE
5
635
100
AcDbEntity
8
0
100
AcDbLine
10
249.89000000000061
20
53.949999999999719
30
0
11
242.89000000000067
21
73.949999999999719
31
0
0
LINE
5
636
100
AcDbEntity
8
0
100
AcDbLine
10
242.89000000000067
20
53.949999999999719
30
0
11
249.89000000000061
21
73.949999999999719
31
0
0
LINE
5
637
100
AcDbEntity
8
0
100
AcDbLine
10
226.09000000000066
20
60.459999999999987
30
0
11
227.5
21
60.459999999999987
31
0
0
LINE
5
638
100
AcDbEntity
8
0
100
AcDbLine
10
241.47999999999999
20
60.459999999999987
30
0
11
242.89000000000067
21
60.459999999999987
31
0
0
LINE
5
639
100
AcDbEntity
8
0
100
AcDbLine
10
226.09000000000066
20
67.439999999999458
30
0
11
227.5
21
67.439999999999458
31
0
0
LINE
5
640
100
AcDbEntity
8
0
100
AcDbLine
10
241.47999999999999
20
67.439999999999458
30
0
11
242.89000000000067
21
67.439999999999458
31
0
0
LWPOLYLINE
5
641
100
AcDbEntity
8
0
100
AcDbPolyline
90
4
70
1
43
0.0
10
275.85247941225157
20
-22.010000000011011
10
268.85247941225151
20
-22.010000000011011
10
268.85247941225151
20
-2.0100000000110096
10
275.85247941225157
20
-2.0100000000110096
0
LINE
5
642
100
AcDbEntity
8
0
100
AcDbLine
10
275.85247941225157
20
-22.010000000011011
30
0
11
268.85247941225151
21
-2.0100000000110096
31
0
0
LINE
5
643
100
AcDbEntity
8
0
100
AcDbLine
10
268.85247941225151
20
-22.010000000011011
30
0
11
275.85247941225157
21
-2.0100000000110096
31
0
0
LWPOLYLINE
5
644
100
AcDbEntity
8
0
100
AcDbPolyline
90
4
70
1
43
0.0
10
299.65247941225158
20
-22.010000000014962
10
292.65247941225152
20
-22.010000000014962
10
292.65247941225152
20
-2.010000000014962
10
299.65247941225158
20
-2.010000000014962
0
LINE
5
645
100
AcDbEntity
8
0
100
AcDbLine
10
299.65247941225158
20
-22.010000000014962
30
0
11
292.65247941225152
21
-2.010000000014962
31
0
0
LINE
5
646
100
AcDbEntity
8
0
100
AcDbLine
10
292.65247941225152
20
-22.010000000014962
30
0
11
299.65247941225158
21
-2.010000000014962
31
0
0
LWPOLYLINE
5
647
100
AcDbEntity
8
0
100
AcDbPolyline
90
4
70
1
43
0.0
10
341.75247941225166
20
-17.910000000015078
10
321.75247941225166
20
-17.910000000015078
10
321.75247941225166
20
-10.910000000015076
10
341.75247941225166
20
-10.910000000015076
0
LINE
5
648
100
AcDbEntity
8
0
100
AcDbLine
10
341.75247941225166
20
-17.910000000015078
30
0
11
321.75247941225166
21
-10.910000000015076
31
0
0
LINE
5
649
100
AcDbEntity
8
0
100
AcDbLine
10
321.75247941225166
20
-17.910000000015078
30
0
11
341.75247941225166
21
-10.910000000015076
31
0
0
LWPOLYLINE
5
650
100
AcDbEntity
8
0
100
AcDbPolyline
90
4
70
1
43
0.0
10
341.75247941225155
20
5.8899999999849193
10
321.75247941225155
20
5.8899999999849193
10
321.75247941225155
20
12.889999999984919
10
341.75247941225155
20
12.889999999984919
0
LINE
5
651
100
AcDbEntity
8
0
100
AcDbLine
10
341.75247941225155
20
5.8899999999849193
30
0
11
321.75247941225155
21
12.889999999984919
31
0
0
LINE
5
652
100
AcDbEntity
8
0
100
AcDbLine
10
321.75247941225155
20
5.8899999999849193
30
0
11
341.75247941225155
21
12.889999999984919
31
0
0
LWPOLYLINE
5
653
100
AcDbEntity
8
0
100
AcDbPolyline
90
4
70
1
43
0.0
10
341.75247941225166
20
43.889999999984887
10
321.75247941225166
20
43.889999999984887
10
321.75247941225166
20
50.889999999984894
10
341.75247941225166
20
50.889999999984894
0
LINE
5
654
100
AcDbEntity
8
0
100
AcDbLine
10
341.75247941225166
20
43.889999999984887
30
0
11
321.75247941225166
21
50.889999999984894
31
0
0
LINE
5
655
100
AcDbEntity
8
0
100
AcDbLine
10
321.75247941225166
20
43.889999999984887
30
0
11
341.75247941225166
21
50.889999999984894
31
0
0
LWPOLYLINE
5
656
100
AcDbEntity
8
0
100
AcDbPolyline
90
4
70
1
43
0.0
10
341.75247941225166
20
20.089999999984897
10
321.75247941225166
20
20.089999999984897
10
321.75247941225166
20
27.089999999984897
10
341.75247941225166
20
27.089999999984897
0
LINE
5
657
100
AcDbEntity
8
0
100
AcDbLine
10
341.75247941225166
20
20.089999999984897
30
0
11
321.75247941225166
21
27.089999999984897
31
0
0
LINE
5
658
100
AcDbEntity
8
0
100
AcDbLine
10
321.75247941225166
20
20.089999999984897
30
0
11
341.75247941225166
21
27.089999999984897
31
0
0
LINE
5
659
100
AcDbEntity
8
0
100
AcDbLine
10
275.85247941225157
20
-15.500000000013227
30
0
11
277.2624794122475
21
-15.500000000013227
31
0
0
LINE
5
660
100
AcDbEntity
8
0
100
AcDbLine
10
291.24247941224758
20
-15.500000000013227
30
0
11
292.65247941225158
21
-15.500000000013227
31
0
0
LINE
5
661
100
AcDbEntity
8
0
100
AcDbLine
10
275.85247941225157
20
-8.520000000008789
30
0
11
277.2624794122475
21
-8.520000000008789
31
0
0
LINE
5
662
100
AcDbEntity
8
0
100
AcDbLine
10
291.24247941224758
20
-8.5200000000087801
30
0
11
292.65247941225158
21
-8.5200000000087783
31
0
0
LINE
5
663
100
AcDbEntity
8
0
100
AcDbLine
10
335.24247941225065
20
-10.910000000015065
30
0
11
335.2424794122507
21
-9.5000000000181242
31
0
0
LINE
5
664
100
AcDbEntity
8
0
100
AcDbLine
10
335.24247941225144
20
4.4799999999847717
30
0
11
335.24247941225144
21
5.8899999999849122
31
0
0
LINE
5
665
100
AcDbEntity
8
0
100
AcDbLine
10
335.24247941225144
20
26.000000387430191
30
0
11
335.24247941225144
21
28.499999999981192
31
0
0
LINE
5
666
100
AcDbEntity
8
0
100
AcDbLine
10
335.24247941225144
20
42.47999999998477
30
0
11
335.24247941225144
21
43.889999999984866
31
0
0
LINE
5
667
100
AcDbEntity
8
0
100
AcDbLine
10
328.26247941225222
20
-10.910000000015065
30
0
11
328.26247941225211
21
-9.5000000000181259
31
0
0
LINE
5
668
100
AcDbEntity
8
0
100
AcDbLine
10
328.26247941225142
20
4.4799999999847726
30
0
11
328.26247941225142
21
5.889999999984914
31
0
0
LINE
5
669
100
AcDbEntity
8
0
100
AcDbLine
10
328.26247941225142
20
26.000000387430191
30
0
11
328.26247941225142
21
28.499999999981192
31
0
0
LINE
5
670
100
AcDbEntity
8
0
100
AcDbLine
10
328.26247941225142
20
42.47999999998477
30
0
11
328.26247941225142
21
43.889999999984866
31
0
0
LINE
5
671
100
AcDbEntity
8
0
100
AcDbLine
10
312.75247941225138
20
82.989999999985017
30
0
11
257.99000000000001
21
82.989999999984946
31
0
0
LINE
5
672
100
AcDbEntity
8
0
100
AcDbLine
10
331.75247941225138
20
63.989999999985031
30
0
11
331.75247941225155
21
99.000001475214958
31
0
0
CIRCLE
5
673
100
AcDbEntity
8
0
100
AcDbCircle
10
331.75247941225143
20
82.989999999985017
30
0
40
3.3499999999999908
210
0
220
0
230
1
0
CIRCLE
5
674
100
AcDbEntity
8
0
100
AcDbCircle
10
331.75247941225143
20
82.989999999985017
30
0
40
8.9000000000000057
210
0
220
0
230
1
0
LINE
5
675
100
AcDbEntity
8
0
100
AcDbLine
10
71.184999999999974
20
-2.2600000000000384
30
0
11
71.184999999999988
21
-21.760000000000037
31
0
0
LINE
5
676
100
AcDbEntity
8
0
100
AcDbLine
10
121.035
20
-5.02000000000002
30
0
11
121.03499999999998
21
-19.000000000000025
31
0
0
CIRCLE
5
677
100
AcDbEntity
8
0
100
AcDbCircle
10
71.184999999999974
20
-4.8600000000000421
30
0
40
1.8499999999999974
210
0
220
0
230
1
0
CIRCLE
5
678
100
AcDbEntity
8
0
100
AcDbCircle
10
71.184999999999988
20
-19.160000000000043
30
0
40
1.3500000000000028
210
0
220
0
230
1
0
CIRCLE
5
679
100
AcDbEntity
8
0
100
AcDbCircle
10
170.88500000000005
20
-4.8600000000001682
30
0
40
1.8499999999999974
210
0
220
0
230
1
0
CIRCLE
5
680
100
AcDbEntity
8
0
100
AcDbCircle
10
170.88499999999999
20
-19.160000000000171
30
0
40
1.3500000000000028
210
0
220
0
230
1
0
CIRCLE
5
681
100
AcDbEntity
8
0
100
AcDbCircle
10
272.35247941225157
20
-4.8600000000001682
30
0
40
1.8499999999999974
210
0
220
0
230
1
0
CIRCLE
5
682
100
AcDbEntity
8
0
100
AcDbCircle
10
272.35247941225157
20
-19.160000000000171
30
0
40
1.3500000000000028
210
0
220
0
230
1
0
LINE
5
683
100
AcDbEntity
8
0
100
AcDbLine
10
272.35247941225157
20
-2.0100000000110096
30
0
11
272.35247941225157
21
-22.010000000011011
31
0
0
CIRCLE
5
684
100
AcDbEntity
8
0
100
AcDbCircle
10
296.15247941225158
20
-4.8600000000001682
30
0
40
1.8499999999999974
210
0
220
0
230
1
0
CIRCLE
5
685
100
AcDbEntity
8
0
100
AcDbCircle
10
296.15247941225158
20
-19.160000000000171
30
0
40
1.3500000000000028
210
0
220
0
230
1
0
LINE
5
686
100
AcDbEntity
8
0
100
AcDbLine
10
296.15247941225158
20
-2.010000000014962
30
0
11
296.15247941225158
21
-22.010000000014962
31
0
0
LINE
5
687
100
AcDbEntity
8
0
100
AcDbLine
10
220.38999999999999
20
16.990000000000091
30
0
11
220.38999999999993
21
-2.0099999999999616
31
0
0
LINE
5
688
100
AcDbEntity
8
0
100
AcDbLine
10
243.98999999999995
20
16.99000000000002
30
0
11
243.98999999999995
21
-3.0099999999999771
31
0
0
CIRCLE
5
689
100
AcDbEntity
8
0
100
AcDbCircle
10
220.38999999999999
20
14.139999999999834
30
0
40
1.8499999999999974
210
0
220
0
230
1
0
CIRCLE
5
690
100
AcDbEntity
8
0
100
AcDbCircle
10
220.38999999999993
20
-0.16000000000016895
30
0
40
1.3500000000000028
210
0
220
0
230
1
0
CIRCLE
5
691
100
AcDbEntity
8
0
100
AcDbCircle
10
243.98999999999995
20
-0.1600000000001689
30
0
40
1.3500000000000028
210
0
220
0
230
1
0
CIRCLE
5
692
100
AcDbEntity
8
0
100
AcDbCircle
10
243.98999999999995
20
14.139999999999834
30
0
40
1.8499999999999974
210
0
220
0
230
1
0
CIRCLE
5
693
100
AcDbEntity
8
0
100
AcDbCircle
10
325.35247941225157
20
-14.410000000015078
30
0
40
1.8499999999999979
210
0
220
0
230
1
0
CIRCLE
5
694
100
AcDbEntity
8
0
100
AcDbCircle
10
339.65247941225158
20
-14.410000000015078
30
0
40
1.3500000000000032
210
0
220
0
230
1
0
CIRCLE
5
695
100
AcDbEntity
8
0
100
AcDbCircle
10
339.65247941225158
20
9.3899999999849193
30
0
40
1.3500000000000032
210
0
220
0
230
1
0
CIRCLE
5
696
100
AcDbEntity
8
0
100
AcDbCircle
10
325.35247941225157
20
9.3899999999849193
30
0
40
1.8499999999999979
210
0
220
0
230
1
0
LINE
5
697
100
AcDbEntity
8
0
100
AcDbLine
10
321.75247941225166
20
-14.410000000015078
30
0
11
341.75247941225166
21
-14.410000000015078
31
0
0
LINE
5
698
100
AcDbEntity
8
0
100
AcDbLine
10
321.75247941225155
20
9.3899999999849193
30
0
11
341.75247941225155
21
9.3899999999849193
31
0
0
LINE
5
699
100
AcDbEntity
8
0
100
AcDbLine
10
321.75247941225166
20
23.589999999984897
30
0
11
341.75247941225166
21
23.589999999984897
31
0
0
LINE
5
700
100
AcDbEntity
8
0
100
AcDbLine
10
321.75247941225166
20
47.389999999984894
30
0
11
341.75247941225166
21
47.389999999984894
31
0
0
CIRCLE
5
701
100
AcDbEntity
8
0
100
AcDbCircle
10
339.65247941225158
20
47.389999999984923
30
0
40
1.3500000000000032
210
0
220
0
230
1
0
CIRCLE
5
702
100
AcDbEntity
8
0
100
AcDbCircle
10
325.35247941225157
20
47.389999999984923
30
0
40
1.8499999999999979
210
0
220
0
230
1
0
CIRCLE
5
703
100
AcDbEntity
8
0
100
AcDbCircle
10
325.35247941225157
20
23.589999999984926
30
0
40
1.8499999999999979
210
0
220
0
230
1
0
CIRCLE
5
704
100
AcDbEntity
8
0
100
AcDbCircle
10
339.65247941225158
20
23.589999999984926
30
0
40
1.3500000000000032
210
0
220
0
230
1
0
LINE
5
705
100
AcDbEntity
8
0
100
AcDbLine
10
260.75247941225126
20
96.950000000000287
30
0
11
345.75247941225166
21
96.950000000000188
31
0
0
LINE
5
706
100
AcDbEntity
8
0
100
AcDbLine
10
345.75247941225166
20
96.950000000000188
30
0
11
345.75247941225166
21
-26.010000000015118
31
0
0
LINE
5
707
100
AcDbEntity
8
0
100
AcDbLine
10
345.75247941225166
20
-26.010000000015118
30
0
11
260.75247941225149
21
-26.010000000015118
31
0
0
LINE
5
708
100
AcDbEntity
8
0
100
AcDbLine
10
257.9899999999999
20
96.949999999999946
30
0
11
259.37123970612566
21
96.949999999999946
31
0
0
LINE
5
709
100
AcDbEntity
8
0
100
AcDbLine
10
259.37123970612566
20
96.949999999999946
30
0
11
260.75247941225149
21
96.949999999999932
31
0
0
LINE
5
710
100
AcDbEntity
8
0
100
AcDbLine
10
260.75247941225149
20
96.949999999999932
30
0
11
260.75247941225149
21
-26.010000000015118
31
0
0
ENDSEC
0
SECTION
2
OBJECTS
0
DICTIONARY
5
C
100
AcDbDictionary
3
ACAD_GROUP
350
D
3
ACAD_MLINESTYLE
350
17
0
DICTIONARY
5
D
100
AcDbDictionary
0
DICTIONARY
5
1A
330
C
100
AcDbDictionary
0
DICTIONARY
5
17
100
AcDbDictionary
0
ENDSEC
0
EOF
